<?xml version="1.0" encoding="UTF-8"?>
<svg version="1.1" xmlns="http://www.w3.org/2000/svg" width="612" height="408">
<path d="M0 0 C6.19558377 1.87226194 11.81815294 4.22246442 17.5 7.3125 C18.24266113 7.71130371 18.98532227 8.11010742 19.75048828 8.52099609 C24.28330939 10.98377255 28.65928008 13.57184487 32.88671875 16.53515625 C35.43398972 18.30082467 38.05638749 19.92465888 40.6875 21.5625 C44.74602174 24.12757694 48.41945509 26.80654103 52 30 C49.72144075 25.18970824 47.33704752 20.93704403 44.171875 16.66796875 C42.11473133 13.73996759 40 10.64417248 40 7 C48.32879866 8.38488221 55.51515806 16.05495914 60.7578125 22.23828125 C62 24 62 24 63 27 C63.66 27 64.32 27 65 27 C66.63765665 29.32625086 68.17558091 31.65644431 69.6875 34.0625 C72.48515747 38.44937739 75.01252054 42.34332609 79.0625 45.6875 C81.48212005 47.83702293 81.95641204 48.74182517 82.5078125 52.0078125 C82.62398688 54.14441082 82.671616 56.28631145 82.63671875 58.42578125 C82.75660156 59.27527344 82.87648438 60.12476563 83 61 C84.76765493 62.32429667 84.76765493 62.32429667 87 63 C89.34852275 64.30791714 91.67141404 65.65658502 94 67 C94.33 65.35 94.66 63.7 95 62 C95.99 62 96.98 62 98 62 C102.50814187 69.04397168 103.28521877 75.73239863 102 84 C100.52931877 87.25447524 98.89350999 89.86304996 96 92 C94.68 92 93.36 92 92 92 C91.54625 91.05125 91.0925 90.1025 90.625 89.125 C89.19761746 85.99686321 89.19761746 85.99686321 87 84 C84.43304255 83.69647463 81.89537932 83.62165457 79.3125 83.5390625 C78.1678125 83.27222656 78.1678125 83.27222656 77 83 C76.54778076 82.05278076 76.54778076 82.05278076 76.08642578 81.08642578 C74.77684276 78.57143781 73.88577058 78.14333389 71.3046875 77.078125 C70.58925781 76.77519531 69.87382812 76.47226563 69.13671875 76.16015625 C68.39035156 75.85980469 67.64398438 75.55945313 66.875 75.25 C66.12089844 74.93417969 65.36679688 74.61835938 64.58984375 74.29296875 C62.73150695 73.51670148 60.86636929 72.7567511 59 72 C59 72.66 59 73.32 59 74 C59.57234375 74.226875 60.1446875 74.45375 60.734375 74.6875 C63.62129471 76.35992245 65.19470494 78.38140185 67.25 81 C68.30960938 82.3303125 68.30960938 82.3303125 69.390625 83.6875 C71 86 71 86 71 88 C77.06050614 89.0812391 77.06050614 89.0812391 83 88 C83.53216189 92.34598874 83.27470707 95.33606279 80.8125 98.9375 C78.49587473 101.4152335 77.23964787 101.96139501 73.84765625 102.5078125 C64.40948383 102.65644514 64.40948383 102.65644514 60 100 C60.495 98.515 60.495 98.515 61 97 C61.66 97 62.32 97 63 97 C60.37351608 92.02350414 57.41260386 88.80420129 52 87 C48.69157006 86.63560368 45.38565231 86.28578162 42.06835938 86.01367188 C35.74004237 85.3447291 31.29579099 82.7731011 27 78 C24.53663946 82.35522144 24.34639093 86.08933188 25 91 C28.73324528 99.31495539 37.83216734 104.54772514 45.6328125 108.65625 C52.34783192 112.4680762 58.35657954 116.80208673 63 123 C63.70125 123.86625 64.4025 124.7325 65.125 125.625 C67.68530031 130.23354056 68.29949227 134.81992971 69 140 C68.01 140 67.02 140 66 140 C65.97421875 140.64066406 65.9484375 141.28132812 65.921875 141.94140625 C65.5207247 148.0589484 64.42853112 151.9125022 61 157 C60.34 157 59.68 157 59 157 C59 157.66 59 158.32 59 159 C57.28166524 160.40034072 55.49870901 161.72205227 53.6875 163 C52.70136719 163.70125 51.71523437 164.4025 50.69921875 165.125 C45.12083333 169 45.12083333 169 42 169 C41.05598958 167.2421875 40.11197917 165.484375 39.16796875 163.7265625 C37.95236507 161.69497635 37.95236507 161.69497635 35 160 C35 159.34 35 158.68 35 158 C34.27039063 157.71495605 33.54078125 157.42991211 32.7890625 157.13623047 C14.11667821 149.52932602 0.99396501 139.21078319 -12 124 C-12.66 123.34 -13.32 122.68 -14 122 C-16.10820797 122.3185177 -16.10820797 122.3185177 -18 123 C-18.81381795 121.06305322 -19.62600916 119.12542289 -20.4375 117.1875 C-20.88996094 116.10855469 -21.34242187 115.02960938 -21.80859375 113.91796875 C-23.38161504 110.06535594 -24.14909832 107.02942735 -24.31640625 102.89453125 C-24.35830078 101.91162109 -24.40019531 100.92871094 -24.44335938 99.91601562 C-24.50233398 98.37977539 -24.50233398 98.37977539 -24.5625 96.8125 C-24.60568359 95.77673828 -24.64886719 94.74097656 -24.69335938 93.67382812 C-24.79944366 91.1160181 -24.90150146 88.55811155 -25 86 C-26.32 86 -27.64 86 -29 86 C-27.71009697 74.50207125 -23.31700155 65.88415096 -15.3203125 57.55859375 C-13.78454308 56.08610135 -13.78454308 56.08610135 -14 54 C-17.3 54.99 -20.6 55.98 -24 57 C-22.46724548 49.33622738 -17.83994363 45.05163928 -11.5 40.6875 C-6.44763167 37.52869391 -2.08874545 35 4 35 C4 34.01 4 33.02 4 32 C1.36 31.01 -1.28 30.02 -4 29 C-4 28.34 -4 27.68 -4 27 C7.04283124 25.80705181 16.5339014 26.03985458 27 30 C26.34 29.54625 25.68 29.0925 25 28.625 C24.34 28.08875 23.68 27.5525 23 27 C23 26.34 23 25.68 23 25 C22.47535156 24.78988281 21.95070312 24.57976562 21.41015625 24.36328125 C17.98666614 22.42681764 15.30733732 19.85719119 12.4375 17.1875 C11.86064453 16.66607422 11.28378906 16.14464844 10.68945312 15.60742188 C7.50530387 12.66566461 4.93608329 9.94795631 3 6 C3 5.34 3 4.68 3 4 C2.01 3.67 1.02 3.34 0 3 C0 2.01 0 1.02 0 0 Z M62 55 C62.33 55.99 62.66 56.98 63 58 C65.01508358 58.73323796 65.01508358 58.73323796 67 59 C65.63676257 56.9600281 65.63676257 56.9600281 64 55 C63.34 55 62.68 55 62 55 Z M64 137 C65 139 65 139 65 139 Z " fill="#C22727" transform="translate(149,122)"/>
<path d="M0 0 C5.39209323 0.10191967 10.11375691 0.47010111 14.22973633 4.31469727 C16.60836681 8.13492198 17.24463203 10.45074663 17.16723633 14.93969727 C16.22973633 18.31469727 16.22973633 18.31469727 14.04223633 20.87719727 C13.44411133 21.68157227 12.84598633 22.48594727 12.22973633 23.31469727 C12.97527068 27.3737176 14.58215935 30.18574266 17.22973633 33.31469727 C19.64560354 29.69089645 20.47285833 26.03612646 21.54223633 21.87719727 C23.53716245 14.37301432 25.97464738 7.37893286 29.22973633 0.31469727 C32.52973633 0.31469727 35.82973633 0.31469727 39.22973633 0.31469727 C43.29087795 12.18705597 47.18496045 24.13559373 50.22973633 36.31469727 C46.92973633 36.31469727 43.62973633 36.31469727 40.22973633 36.31469727 C39.56973633 34.33469727 38.90973633 32.35469727 38.22973633 30.31469727 C35.25973633 30.31469727 32.28973633 30.31469727 29.22973633 30.31469727 C28.89973633 32.29469727 28.56973633 34.27469727 28.22973633 36.31469727 C20.96973633 36.31469727 13.70973633 36.31469727 6.22973633 36.31469727 C1.22973633 27.31469727 1.22973633 27.31469727 1.22973633 25.31469727 C0.56973633 25.31469727 -0.09026367 25.31469727 -0.77026367 25.31469727 C-0.77026367 28.94469727 -0.77026367 32.57469727 -0.77026367 36.31469727 C-4.07026367 36.31469727 -7.37026367 36.31469727 -10.77026367 36.31469727 C-10.79491465 31.34847377 -10.81310016 26.3822856 -10.82519531 21.41601562 C-10.83023557 19.72525411 -10.83706772 18.03449698 -10.84570312 16.34375 C-10.85778224 13.9186902 -10.8634949 11.49368783 -10.86791992 9.06860352 C-10.87308121 8.30818253 -10.87824249 7.54776154 -10.88356018 6.76429749 C-10.88375605 4.94737156 -10.83223644 3.13056599 -10.77026367 1.31469727 C-8.54190508 -0.91366133 -3.09263586 0.00307793 0 0 Z M-0.77026367 9.31469727 C-0.77026367 11.95469727 -0.77026367 14.59469727 -0.77026367 17.31469727 C2.69473633 16.81969727 2.69473633 16.81969727 6.22973633 16.31469727 C6.92133034 14.46744674 6.92133034 14.46744674 7.22973633 12.31469727 C6.56973633 11.32469727 5.90973633 10.33469727 5.22973633 9.31469727 C2.14607762 9.06448157 2.14607762 9.06448157 -0.77026367 9.31469727 Z M33.22973633 16.31469727 C32.89973633 18.29469727 32.56973633 20.27469727 32.22973633 22.31469727 C33.54973633 21.98469727 34.86973633 21.65469727 36.22973633 21.31469727 C35.56973633 19.66469727 34.90973633 18.01469727 34.22973633 16.31469727 C33.89973633 16.31469727 33.56973633 16.31469727 33.22973633 16.31469727 Z " fill="#D5D7D9" transform="translate(312.770263671875,171.685302734375)"/>
<path d="M0 0 C2.69905009 3.2894673 3.1459581 6.30458108 3 10.4375 C2.62263123 13.06398666 2.02028272 14.93780733 1 17.4375 C0.01 17.7675 -0.98 18.0975 -2 18.4375 C-3.20882096 20.43766466 -3.20882096 20.43766466 -4 22.4375 C-4.66 22.4375 -5.32 22.4375 -6 22.4375 C-6.33 23.4275 -6.66 24.4175 -7 25.4375 C-3.7 25.7675 -0.4 26.0975 3 26.4375 C3.08636719 25.426875 3.17273438 24.41625 3.26171875 23.375 C3.85765956 19.22533159 5.6390307 15.97185298 7.8125 12.4375 C8.15603516 11.86 8.49957031 11.2825 8.85351562 10.6875 C9.54356815 9.52748675 10.23770277 8.36989141 10.93603516 7.21484375 C12.67141285 4.31591084 14.33224272 1.37575103 16 -1.5625 C19.63 -1.5625 23.26 -1.5625 27 -1.5625 C27 5.6975 27 12.9575 27 20.4375 C28.32 20.4375 29.64 20.4375 31 20.4375 C31 23.0775 31 25.7175 31 28.4375 C30.01 28.4375 29.02 28.4375 28 28.4375 C27.67 30.4175 27.34 32.3975 27 34.4375 C24.03 34.4375 21.06 34.4375 18 34.4375 C18 32.4575 18 30.4775 18 28.4375 C13.05 28.7675 8.1 29.0975 3 29.4375 C2.67 31.0875 2.34 32.7375 2 34.4375 C-5.92 34.4375 -13.84 34.4375 -22 34.4375 C-22 27.4375 -22 27.4375 -20.7578125 25.44140625 C-20.21898437 24.96574219 -19.68015625 24.49007812 -19.125 24 C-18.59132813 23.50628906 -18.05765625 23.01257813 -17.5078125 22.50390625 C-16 21.4375 -16 21.4375 -14 21.4375 C-13.7525 20.880625 -13.505 20.32375 -13.25 19.75 C-12 17.4375 -12 17.4375 -9.9375 15 C-7.93292265 12.34878479 -7.37223494 10.69455571 -7 7.4375 C-8.65 7.1075 -10.3 6.7775 -12 6.4375 C-12.33 7.7575 -12.66 9.0775 -13 10.4375 C-15.97 10.4375 -18.94 10.4375 -22 10.4375 C-22.25 4.8125 -22.25 4.8125 -20 1.4375 C-19.34 1.4375 -18.68 1.4375 -18 1.4375 C-18 0.7775 -18 0.1175 -18 -0.5625 C-11.73415717 -3.29376482 -6.03409147 -3.14275598 0 0 Z M17 13.4375 C14.76399562 16.03126508 14 16.9208494 14 20.4375 C15.32 20.4375 16.64 20.4375 18 20.4375 C18 18.1275 18 15.8175 18 13.4375 C17.67 13.4375 17.34 13.4375 17 13.4375 Z " fill="#C7CACC" transform="translate(414,217.5625)"/>
<path d="M0 0 C-2.95785622 1.97190415 -5.1866893 2.74649956 -8.5625 3.75 C-18.04544052 6.84997211 -25.98283622 11.89122833 -33 19 C-33.33 19.66 -33.66 20.32 -34 21 C-34.66 21 -35.32 21 -36 21 C-36.27585938 21.86496094 -36.55171875 22.72992188 -36.8359375 23.62109375 C-38 27 -38 27 -39.2890625 29.97265625 C-43.99981525 40.86799375 -43.69920996 50.04137341 -41.6875 61.5 C-41.57019531 62.17071533 -41.45289063 62.84143066 -41.33203125 63.5324707 C-40.53242414 67.57691204 -39.28315805 70.58439556 -37 74 C-35.69965001 76.96190831 -34.70156977 79.84293604 -34 83 C-37.21656415 80.49822789 -40.121936 77.878064 -43 75 C-43.66 74.67 -44.32 74.34 -45 74 C-44.67 76.97 -44.34 79.94 -44 83 C-41.525 82.505 -41.525 82.505 -39 82 C-38.67 84.64 -38.34 87.28 -38 90 C-37.34 90 -36.68 90 -36 90 C-35.360625 90.66 -34.72125 91.32 -34.0625 92 C-32.11987668 94.34807292 -32.11987668 94.34807292 -29 94 C-28.67 95.65 -28.34 97.3 -28 99 C-27.34 99 -26.68 99 -26 99 C-26.495 100.485 -26.495 100.485 -27 102 C-33.14980109 96.68472307 -38.82842266 91.18149629 -44.1875 85.06640625 C-45.41270953 83.66956177 -46.68616727 82.31383273 -48 81 C-50.10820797 81.3185177 -50.10820797 81.3185177 -52 82 C-52.81381795 80.06305322 -53.62600916 78.12542289 -54.4375 76.1875 C-54.88996094 75.10855469 -55.34242187 74.02960938 -55.80859375 72.91796875 C-57.38161504 69.06535594 -58.14909832 66.02942735 -58.31640625 61.89453125 C-58.35830078 60.91162109 -58.40019531 59.92871094 -58.44335938 58.91601562 C-58.48267578 57.89185547 -58.52199219 56.86769531 -58.5625 55.8125 C-58.60568359 54.77673828 -58.64886719 53.74097656 -58.69335938 52.67382812 C-58.79944366 50.1160181 -58.90150146 47.55811155 -59 45 C-60.32 45 -61.64 45 -63 45 C-61.71009697 33.50207125 -57.31700155 24.88415096 -49.3203125 16.55859375 C-47.78454308 15.08610135 -47.78454308 15.08610135 -48 13 C-48.99 13 -49.98 13 -51 13 C-51 12.34 -51 11.68 -51 11 C-47.52674819 9.8422494 -44.63932552 9.93133348 -41 10 C-41.33 10.99 -41.66 11.98 -42 13 C-42.99 13 -43.98 13 -45 13 C-46.20628008 15.33214148 -47.1654738 17.49642139 -48 20 C-48.66 20 -49.32 20 -50 20 C-50 20.99 -50 21.98 -50 23 C-49.21625 23.144375 -48.4325 23.28875 -47.625 23.4375 C-45 24 -45 24 -43 25 C-42.67 23.68 -42.34 22.36 -42 21 C-41.34 21 -40.68 21 -40 21 C-39.75507813 20.42121094 -39.51015625 19.84242188 -39.2578125 19.24609375 C-33.89159302 9.66355897 -22.01225333 3.8863419 -11.98828125 0.71484375 C-7.8407039 -0.27732181 -4.24422202 -0.28294813 0 0 Z " fill="#BA2627" transform="translate(183,163)"/>
<path d="M0 0 C2.97 0 5.94 0 9 0 C11.97 5.28 14.94 10.56 18 16 C18.28915269 11.10881223 18.28915269 11.10881223 18.56811523 6.21704102 C18.88888889 1.11111111 18.88888889 1.11111111 20 0 C22.97 0 25.94 0 29 0 C29 11.88 29 23.76 29 36 C25.7 36 22.4 36 19 36 C15.04 29.07 15.04 29.07 11 22 C10.67 26.62 10.34 31.24 10 36 C6.7 36 3.4 36 0 36 C0 24.12 0 12.24 0 0 Z " fill="#D2D4D5" transform="translate(429,172)"/>
<path d="M0 0 C2.50101315 2.0278485 4.18436623 4.30584621 5.96484375 6.9765625 C5.93341082 9.71646658 5.41006038 12.26074104 4.96484375 14.9765625 C5.62484375 14.9765625 6.28484375 14.9765625 6.96484375 14.9765625 C7.41398786 22.31258301 6.82371818 27.47213577 2.02734375 33.3515625 C-2.31924123 36.7761446 -7.73609016 36.3285651 -13.03515625 35.9765625 C-18.0480857 34.83726035 -20.05472501 31.95047083 -23.03515625 27.9765625 C-24.5764612 24.8939526 -24.26077183 21.66935319 -24.28515625 18.2890625 C-24.30578125 17.59361328 -24.32640625 16.89816406 -24.34765625 16.18164062 C-24.38600154 11.04816429 -23.45617821 7.52377471 -21.03515625 2.9765625 C-15.35394131 -1.73763713 -6.86637925 -3.45295847 0 0 Z M-12.03515625 7.9765625 C-13.97288873 11.2368743 -14.30587812 13.70518186 -14.28515625 17.4765625 C-14.2903125 18.415 -14.29546875 19.3534375 -14.30078125 20.3203125 C-14.03110857 23.01703926 -13.40838215 24.66605543 -12.03515625 26.9765625 C-9.39515625 26.9765625 -6.75515625 26.9765625 -4.03515625 26.9765625 C-3.70515625 25.9865625 -3.37515625 24.9965625 -3.03515625 23.9765625 C-6.00515625 23.4815625 -6.00515625 23.4815625 -9.03515625 22.9765625 C-9.36515625 20.3365625 -9.69515625 17.6965625 -10.03515625 14.9765625 C-8.75640625 15.0178125 -7.47765625 15.0590625 -6.16015625 15.1015625 C-4.01644133 15.21869123 -4.01644133 15.21869123 -2.03515625 14.9765625 C-1.37515625 14.3165625 -0.71515625 13.6565625 -0.03515625 12.9765625 C-0.65390625 12.8940625 -1.27265625 12.8115625 -1.91015625 12.7265625 C-4.03515625 11.9765625 -4.03515625 11.9765625 -5.28515625 9.9140625 C-5.53265625 9.2746875 -5.78015625 8.6353125 -6.03515625 7.9765625 C-8.01515625 7.9765625 -9.99515625 7.9765625 -12.03515625 7.9765625 Z " fill="#DDDEE0" transform="translate(386.03515625,173.0234375)"/>
<path d="M0 0 C0.69996094 -0.020625 1.39992188 -0.04125 2.12109375 -0.0625 C7.87671876 -0.10521336 12.53901658 0.92271315 17.1171875 4.6796875 C21.87429378 10.74909896 21.98996103 16.76797412 21.375 24.25 C20.46219791 28.77533241 19.40306829 31.35804667 15.8671875 34.42578125 C11.35205701 36.78435612 7.64634944 36.95167874 2.625 37.0625 C1.76261719 37.10052734 0.90023438 37.13855469 0.01171875 37.17773438 C-6.30492666 37.41003667 -6.30492666 37.41003667 -8.625 36.25 C-8.64965098 31.28377651 -8.66783649 26.31758834 -8.67993164 21.35131836 C-8.6849719 19.66055684 -8.69180405 17.96979971 -8.70043945 16.27905273 C-8.71251857 13.85399293 -8.71823123 11.42899056 -8.72265625 9.00390625 C-8.72781754 8.24348526 -8.73297882 7.48306427 -8.73829651 6.69960022 C-8.73849238 4.8826743 -8.68697277 3.06586873 -8.625 1.25 C-6.61466806 -0.76033194 -2.74460986 0.01956941 0 0 Z M2.375 9.25 C1.12066542 13.01300374 1.26804578 16.52210909 1.3125 20.4375 C1.31701172 21.18708984 1.32152344 21.93667969 1.32617188 22.70898438 C1.33793646 24.55602383 1.35587135 26.40302213 1.375 28.25 C5.74916958 28.45830882 5.74916958 28.45830882 9.75 26.9375 C12.37165314 22.60168903 12.1150689 18.17631721 11.375 13.25 C9.9118109 10.4482517 9.9118109 10.4482517 7.375 9.25 C4.70665034 8.91501699 4.70665034 8.91501699 2.375 9.25 Z " fill="#CBD2D4" transform="translate(278.625,171.75)"/>
<path d="M0 0 C5.23071302 5.70623239 6.43324031 10.9609737 6.34375 18.51171875 C5.7696805 24.10092322 4.01255995 29.35729476 -0.0625 33.3125 C-6.75118344 35.49359243 -13.37183295 36.1388935 -19.9375 33.25 C-25.5053963 27.53162002 -26.33285193 22.8192498 -26.30541992 14.97558594 C-26.15936464 9.28565971 -25.2201686 5.8634802 -21.9375 1.25 C-15.554282 -3.69699395 -6.94781937 -4.13912643 0 0 Z M-14.5703125 7.90625 C-16.29276249 10.8590214 -16.33801697 12.84773756 -16.3125 16.25 C-16.32023437 17.28125 -16.32796875 18.3125 -16.3359375 19.375 C-15.89715544 22.54111368 -15.06032349 23.91377097 -12.9375 26.25 C-9.4725 25.755 -9.4725 25.755 -5.9375 25.25 C-3.65299517 20.00907715 -3.68087839 15.72305443 -4.9375 10.25 C-5.98579396 7.64987862 -5.98579396 7.64987862 -7.9375 6.25 C-11.06310643 5.62487871 -12.29819936 5.60152279 -14.5703125 7.90625 Z " fill="#C2C8CC" transform="translate(327.9375,217.75)"/>
<path d="M0 0 C3.95337999 1.98092274 5.63482269 4.34708169 7.23974609 8.36987305 C8.23392397 11.7406925 8.21918036 14.98678729 8.13671875 18.4765625 C8.14155273 19.51103516 8.14155273 19.51103516 8.14648438 20.56640625 C8.10425291 24.58223487 7.69954281 27.78260669 5.82421875 31.3515625 C0.98133129 35.93956115 -2.49012531 36.62282704 -9.0859375 36.5 C-13.808496 36.16456594 -17.12777492 35.37198972 -20.55078125 32.0390625 C-24.67998346 25.20999731 -23.75881787 16.02469323 -22.55078125 8.4140625 C-18.47794495 -0.6572547 -9.04475977 -2.69556575 0 0 Z M-11.84765625 9.46875 C-13.80704395 12.24647021 -13.53744624 14.49321577 -13.48828125 17.8515625 C-13.48441406 18.99625 -13.48054688 20.1409375 -13.4765625 21.3203125 C-13.39806015 24.52712795 -13.39806015 24.52712795 -11.17578125 27.3515625 C-9.19831003 27.71454186 -9.19831003 27.71454186 -7.05078125 27.5390625 C-5.77203125 27.4771875 -4.49328125 27.4153125 -3.17578125 27.3515625 C-2.05947918 24.00265629 -2.00812701 21.37616989 -1.98828125 17.8515625 C-1.97410156 16.706875 -1.95992188 15.5621875 -1.9453125 14.3828125 C-1.94029068 11.17393865 -1.94029068 11.17393865 -4.17578125 8.3515625 C-7.2092929 7.96430569 -9.24664864 7.73069351 -11.84765625 9.46875 Z " fill="#E0E2E2" transform="translate(418.17578125,172.6484375)"/>
<path d="M0 0 C3.46679688 0.04882812 3.46679688 0.04882812 6.93359375 0.09765625 C7.26359375 4.71765625 7.59359375 9.33765625 7.93359375 14.09765625 C10.90359375 14.09765625 13.87359375 14.09765625 16.93359375 14.09765625 C16.93359375 9.47765625 16.93359375 4.85765625 16.93359375 0.09765625 C19.90359375 0.09765625 22.87359375 0.09765625 25.93359375 0.09765625 C27.14124317 12.19272966 26.69002288 23.98315281 25.93359375 36.09765625 C22.96359375 36.09765625 19.99359375 36.09765625 16.93359375 36.09765625 C16.93359375 31.47765625 16.93359375 26.85765625 16.93359375 22.09765625 C13.96359375 22.09765625 10.99359375 22.09765625 7.93359375 22.09765625 C7.60359375 26.71765625 7.27359375 31.33765625 6.93359375 36.09765625 C3.96359375 36.09765625 0.99359375 36.09765625 -2.06640625 36.09765625 C-3.07921746 28.57391582 -3.21669217 21.18343144 -3.19140625 13.59765625 C-3.19527344 12.4065625 -3.19914062 11.21546875 -3.203125 9.98828125 C-3.20183594 8.8590625 -3.20054687 7.72984375 -3.19921875 6.56640625 C-3.19752686 5.02629883 -3.19752686 5.02629883 -3.19580078 3.45507812 C-3.03188952 0.46880051 -2.98313427 0.14097988 0 0 Z " fill="#CFD3D5" transform="translate(273.06640625,215.90234375)"/>
<path d="M0 0 C0 0.66 0 1.32 0 2 C0.99 2.33 1.98 2.66 3 3 C4.35439668 5.70879335 4.06501451 8.00933268 4 11 C2.54257537 11.08096803 1.08387193 11.13917774 -0.375 11.1875 C-1.18710937 11.22230469 -1.99921875 11.25710937 -2.8359375 11.29296875 C-3.55007813 11.19628906 -4.26421875 11.09960938 -5 11 C-5.66 10.01 -6.32 9.02 -7 8 C-8.32 8 -9.64 8 -11 8 C-11.33 8.99 -11.66 9.98 -12 11 C-11.26394531 11.17015625 -10.52789062 11.3403125 -9.76953125 11.515625 C0.99040042 14.18784053 0.99040042 14.18784053 4 18 C5.14859507 22.10873271 5.30407473 25.72841476 4.3125 29.875 C2.45473413 32.88281141 0.48603835 34.43633028 -2.8125 35.6875 C-8.53284466 36.50469209 -13.61999336 36.17269499 -19 34 C-22.07082246 30.43388359 -22.32183159 27.6129195 -22 23 C-18.7 23 -15.4 23 -12 23 C-11.34 24.32 -10.68 25.64 -10 27 C-8.35 26.34 -6.7 25.68 -5 25 C-5 24.34 -5 23.68 -5 23 C-5.825 22.9175 -6.65 22.835 -7.5 22.75 C-12.82229078 21.60950912 -17.38723708 19.86475713 -21 15.6875 C-22.65190231 11.24801255 -22.64470954 7.66865999 -20.9375 3.25 C-15.47192816 -3.09711569 -7.19503413 -3.4885014 0 0 Z " fill="#CACECF" transform="translate(357,217)"/>
<path d="M0 0 C5.39209323 0.10191967 10.11375691 0.47010111 14.22973633 4.31469727 C16.56270083 8.06157964 17.22973633 10.41484837 17.22973633 14.81469727 C16.02246 19.04016442 14.38721351 22.22719187 11.22973633 25.31469727 C8.41723633 26.25219727 8.41723633 26.25219727 6.22973633 26.31469727 C5.89973633 28.29469727 5.56973633 30.27469727 5.22973633 32.31469727 C1.22973633 27.56469727 1.22973633 27.56469727 1.22973633 25.31469727 C0.56973633 25.31469727 -0.09026367 25.31469727 -0.77026367 25.31469727 C-0.77026367 28.94469727 -0.77026367 32.57469727 -0.77026367 36.31469727 C-4.07026367 36.31469727 -7.37026367 36.31469727 -10.77026367 36.31469727 C-10.79491465 31.34847377 -10.81310016 26.3822856 -10.82519531 21.41601562 C-10.83023557 19.72525411 -10.83706772 18.03449698 -10.84570312 16.34375 C-10.85778224 13.9186902 -10.8634949 11.49368783 -10.86791992 9.06860352 C-10.87308121 8.30818253 -10.87824249 7.54776154 -10.88356018 6.76429749 C-10.88375605 4.94737156 -10.83223644 3.13056599 -10.77026367 1.31469727 C-8.54190508 -0.91366133 -3.09263586 0.00307793 0 0 Z M-0.77026367 9.31469727 C-0.77026367 11.95469727 -0.77026367 14.59469727 -0.77026367 17.31469727 C2.69473633 16.81969727 2.69473633 16.81969727 6.22973633 16.31469727 C6.92133034 14.46744674 6.92133034 14.46744674 7.22973633 12.31469727 C6.56973633 11.32469727 5.90973633 10.33469727 5.22973633 9.31469727 C2.14607762 9.06448157 2.14607762 9.06448157 -0.77026367 9.31469727 Z " fill="#CFD1D3" transform="translate(312.770263671875,171.685302734375)"/>
<path d="M0 0 C0.99 0.33 1.98 0.66 3 1 C2.39671875 1.49628906 1.7934375 1.99257812 1.171875 2.50390625 C-7.0681886 9.3347665 -7.0681886 9.3347665 -10.3359375 19.08203125 C-10.5992756 27.944371 -9.46256876 33.76086015 -3.4375 40.5390625 C0.58027279 44.62234245 5.08841324 48.08093341 9.625 51.5625 C15.05377618 55.76542349 19.54620782 59.98784324 23 66 C23 67.32 23 68.64 23 70 C23.66 70 24.32 70 25 70 C25.3690205 84.78132118 25.3690205 84.78132118 23 91 C22.67 91 22.34 91 22 91 C21.81824219 90.154375 21.63648438 89.30875 21.44921875 88.4375 C18.96291991 77.21727958 16.42805689 67.20946176 8 59 C6.7625 57.74509766 6.7625 57.74509766 5.5 56.46484375 C4.2625 55.21380859 4.2625 55.21380859 3 53.9375 C1.7625 52.68259766 1.7625 52.68259766 0.5 51.40234375 C-1.97145779 48.94319132 -1.97145779 48.94319132 -4.8125 46.81640625 C-5.534375 46.21699219 -6.25625 45.61757812 -7 45 C-7 44.34 -7 43.68 -7 43 C-7.66 43 -8.32 43 -9 43 C-13.94575574 34.9219323 -16.57764115 27.07059608 -14.46484375 17.6015625 C-12.06020131 9.69120868 -7.31053556 3.99302353 0 0 Z " fill="#A31417" transform="translate(170,184)"/>
<path d="M0 0 C-2.95785622 1.97190415 -5.1866893 2.74649956 -8.5625 3.75 C-18.04544052 6.84997211 -25.98283622 11.89122833 -33 19 C-33.33 19.66 -33.66 20.32 -34 21 C-34.66 21 -35.32 21 -36 21 C-36.27585938 21.86496094 -36.55171875 22.72992188 -36.8359375 23.62109375 C-38 27 -38 27 -39.2890625 29.97265625 C-43.99981525 40.86799375 -43.69920996 50.04137341 -41.6875 61.5 C-41.57019531 62.17071533 -41.45289063 62.84143066 -41.33203125 63.5324707 C-40.53242414 67.57691204 -39.28315805 70.58439556 -37 74 C-35.69965001 76.96190831 -34.70156977 79.84293604 -34 83 C-42.29026035 76.87618399 -47.58929917 68.14366497 -49.59765625 58.0625 C-51.38689105 44.44347007 -48.57615477 32.97799619 -42 21 C-41.34 21 -40.68 21 -40 21 C-39.75507813 20.42121094 -39.51015625 19.84242188 -39.2578125 19.24609375 C-33.89159302 9.66355897 -22.01225333 3.8863419 -11.98828125 0.71484375 C-7.8407039 -0.27732181 -4.24422202 -0.28294813 0 0 Z " fill="#9E1215" transform="translate(183,163)"/>
<path d="M0 0 C1.12591553 0.00523682 2.25183105 0.01047363 3.41186523 0.01586914 C4.62680664 0.0190918 5.84174805 0.02231445 7.09350586 0.02563477 C8.37290039 0.03401367 9.65229492 0.04239258 10.97045898 0.05102539 C12.2537207 0.05553711 13.53698242 0.06004883 14.85913086 0.06469727 C18.04211921 0.07652994 21.22501661 0.09301471 24.40795898 0.11352539 C24.40795898 2.75352539 24.40795898 5.39352539 24.40795898 8.11352539 C21.43795898 8.11352539 18.46795898 8.11352539 15.40795898 8.11352539 C15.40795898 17.35352539 15.40795898 26.59352539 15.40795898 36.11352539 C12.43795898 36.11352539 9.46795898 36.11352539 6.40795898 36.11352539 C6.07795898 27.20352539 5.74795898 18.29352539 5.40795898 9.11352539 C2.76795898 8.78352539 0.12795898 8.45352539 -2.59204102 8.11352539 C-3.59204102 7.11352539 -3.59204102 7.11352539 -3.71704102 4.11352539 C-3.55212641 0.15557491 -3.55212641 0.15557491 0 0 Z " fill="#DBDDDE" transform="translate(365.592041015625,215.886474609375)"/>
<path d="M0 0 C3.88192126 3.76774711 7.79531881 7.62797789 11 12 C11 12.66 11 13.32 11 14 C17.06050614 15.0812391 17.06050614 15.0812391 23 14 C23.53216189 18.34598874 23.27470707 21.33606279 20.8125 24.9375 C18.49587473 27.4152335 17.23964787 27.96139501 13.84765625 28.5078125 C4.40948383 28.65644514 4.40948383 28.65644514 0 26 C0.495 24.515 0.495 24.515 1 23 C1.66 23 2.32 23 3 23 C0.37351608 18.02350414 -2.58739614 14.80420129 -8 13 C-11.30842994 12.63560368 -14.61434769 12.28578162 -17.93164062 12.01367188 C-24.25995763 11.3447291 -28.70420901 8.7731011 -33 4 C-33.99 5.32 -34.98 6.64 -36 8 C-36.042721 6.33388095 -36.04063832 4.66617115 -36 3 C-35.67 2.67 -35.34 2.34 -35 2 C-33.00390625 2.015625 -33.00390625 2.015625 -30.5625 2.25 C-29.75941406 2.31703125 -28.95632812 2.3840625 -28.12890625 2.453125 C-26 3 -26 3 -24 6 C-24.99 6 -25.98 6 -27 6 C-27 6.66 -27 7.32 -27 8 C-22.71 8.33 -18.42 8.66 -14 9 C-14 9.66 -14 10.32 -14 11 C-13.11248047 10.98259766 -13.11248047 10.98259766 -12.20703125 10.96484375 C-5.49207829 10.88816403 -5.49207829 10.88816403 -2.25 11.625 C0.68044845 12.11340807 2.3712925 11.27680079 5 10 C5 10.66 5 11.32 5 12 C5.33 11.67 5.66 11.34 6 11 C6 10.34 6 9.68 6 9 C5.01 8.67 4.02 8.34 3 8 C3 7.01 3 6.02 3 5 C2.01 4.67 1.02 4.34 0 4 C0 2.68 0 1.36 0 0 Z " fill="#AD2626" transform="translate(209,196)"/>
<path d="M0 0 C2.97 0 5.94 0 9 0 C10.20764942 12.09507341 9.75642913 23.88549656 9 36 C6.03 36 3.06 36 0 36 C0 31.05 0 26.1 0 21 C-2.64 21 -5.28 21 -8 21 C-8 20.67 -8 20.34 -8 20 C-6.02 20 -4.04 20 -2 20 C-2 18.68 -2 17.36 -2 16 C-2.99 15.67 -3.98 15.34 -5 15 C-3.35 15 -1.7 15 0 15 C0 10.05 0 5.1 0 0 Z " fill="#D6DADB" transform="translate(290,216)"/>
<path d="M0 0 C0.99 0 1.98 0 3 0 C7.50814187 7.04397168 8.28521877 13.73239863 7 22 C5.52931877 25.25447524 3.89350999 27.86304996 1 30 C-0.32 30 -1.64 30 -3 30 C-3.680625 28.576875 -3.680625 28.576875 -4.375 27.125 C-5.80238254 23.99686321 -5.80238254 23.99686321 -8 22 C-10.43252661 21.53837573 -10.43252661 21.53837573 -13.125 21.375 C-14.03507813 21.30023438 -14.94515625 21.22546875 -15.8828125 21.1484375 C-16.58148438 21.09945312 -17.28015625 21.05046875 -18 21 C-18.66 19.35 -19.32 17.7 -20 16 C-18.68 16 -17.36 16 -16 16 C-16 16.99 -16 17.98 -16 19 C-12.37 19 -8.74 19 -5 19 C-5 18.01 -5 17.02 -5 16 C-5.66 16 -6.32 16 -7 16 C-6.42655063 13.13275314 -6.1385485 12.1385485 -4 10 C-4.66 10 -5.32 10 -6 10 C-6 9.34 -6 8.68 -6 8 C-5.34 7.67 -4.68 7.34 -4 7 C-4.33 6.01 -4.66 5.02 -5 4 C-3.68 4.33 -2.36 4.66 -1 5 C-0.67 3.35 -0.34 1.7 0 0 Z " fill="#C12728" transform="translate(244,184)"/>
<path d="M0 0 C0 0.99 0 1.98 0 3 C1.32 2.01 2.64 1.02 4 0 C5.5 1.375 5.5 1.375 7 3 C7 3.66 7 4.32 7 5 C6.34 5 5.68 5 5 5 C5 5.66 5 6.32 5 7 C4.05125 7.103125 3.1025 7.20625 2.125 7.3125 C-1.29107501 7.68539295 -1.29107501 7.68539295 -3 11 C-3.66 11 -4.32 11 -5 11 C-4.44463538 19.65239723 -4.44463538 19.65239723 -3.375 28.25 C-3.25125 29.1575 -3.1275 30.065 -3 31 C-3.33 31.33 -3.66 31.66 -4 32 C-3.34 32.66 -2.68 33.32 -2 34 C-4.75 34.3125 -4.75 34.3125 -8 34 C-10.25 31.75 -10.25 31.75 -12 29 C-12.54333984 28.15888672 -12.54333984 28.15888672 -13.09765625 27.30078125 C-14.40067132 23.97837486 -14.22570612 20.99066952 -14.1875 17.4375 C-14.1865332 16.42913086 -14.1865332 16.42913086 -14.18554688 15.40039062 C-14.1581579 12.33586829 -13.9757613 9.9272839 -13 7 C-11.02 6.67 -9.04 6.34 -7 6 C-6.67 5.01 -6.34 4.02 -6 3 C-3.86928565 0.38503239 -3.5167455 0 0 0 Z " fill="#D8DDDE" transform="translate(316,217)"/>
<path d="M0 0 C0.74121094 0.00386719 1.48242188 0.00773438 2.24609375 0.01171875 C3.34630859 0.00591797 3.34630859 0.00591797 4.46875 0 C7.69542613 0.00587737 10.28952796 0.10953015 13.37109375 1.13671875 C14.49609375 6.88671875 14.49609375 6.88671875 13.37109375 9.13671875 C9.89395351 10.55333144 6.96856855 9.87256587 3.37109375 9.13671875 C3.39429688 9.76320312 3.4175 10.3896875 3.44140625 11.03515625 C3.46847656 12.26105469 3.46847656 12.26105469 3.49609375 13.51171875 C3.51929688 14.32382813 3.5425 15.1359375 3.56640625 15.97265625 C3.37109375 18.13671875 3.37109375 18.13671875 1.37109375 20.13671875 C-0.60890625 20.13671875 -2.58890625 20.13671875 -4.62890625 20.13671875 C-4.95890625 25.41671875 -5.28890625 30.69671875 -5.62890625 36.13671875 C-5.95890625 36.13671875 -6.28890625 36.13671875 -6.62890625 36.13671875 C-6.65355723 31.17049526 -6.67174274 26.20430709 -6.68383789 21.23803711 C-6.68887815 19.54727559 -6.6957103 17.85651846 -6.7043457 16.16577148 C-6.71642482 13.74071168 -6.72213748 11.31570931 -6.7265625 8.890625 C-6.73172379 8.13020401 -6.73688507 7.36978302 -6.74220276 6.58631897 C-6.74239863 4.76939305 -6.69087902 2.95258748 -6.62890625 1.13671875 C-4.82631139 -0.66587611 -2.3961005 0.00438044 0 0 Z " fill="#A2A5A6" transform="translate(308.62890625,171.86328125)"/>
<path d="M0 0 C6.28890749 1.89388175 11.97971021 4.31236113 17.75 7.4375 C18.84248047 8.01081055 18.84248047 8.01081055 19.95703125 8.59570312 C23.97431152 10.74287017 27.53443937 13.00515528 31 16 C29 18 29 18 26.5 18.3125 C25.2625 18.6528125 25.2625 18.6528125 24 19 C22.62533375 21.47636012 22.62533375 21.47636012 22 24 C25.04913228 25.01111093 25.04913228 25.01111093 28 24 C28.66 26.64 29.32 29.28 30 32 C30.66 32 31.32 32 32 32 C32 32.66 32 33.32 32 34 C30.02 33.34 28.04 32.68 26 32 C26 31.01 26 30.02 26 29 C25.01 28.34 24.02 27.68 23 27 C23 26.34 23 25.68 23 25 C22.47535156 24.78988281 21.95070312 24.57976562 21.41015625 24.36328125 C17.98666614 22.42681764 15.30733732 19.85719119 12.4375 17.1875 C11.86064453 16.66607422 11.28378906 16.14464844 10.68945312 15.60742188 C7.50530387 12.66566461 4.93608329 9.94795631 3 6 C3 5.34 3 4.68 3 4 C2.01 3.67 1.02 3.34 0 3 C0 2.01 0 1.02 0 0 Z " fill="#B42728" transform="translate(149,122)"/>
<path d="M0 0 C2.70744644 1.0616528 4.60815686 2.29913377 7 4 C6.67 4.66 6.34 5.32 6 6 C5.7525 6.66 5.505 7.32 5.25 8 C3.59819267 10.64289172 1.90999654 11.08105372 -1 12 C-1.33 11.34 -1.66 10.68 -2 10 C-4.91652174 9.83318891 -4.91652174 9.83318891 -8 10 C-10.31443714 11.88093282 -10.31443714 11.88093282 -10.23046875 14.96875 C-10.21628906 16.1340625 -10.20210938 17.299375 -10.1875 18.5 C-10.18105469 19.6653125 -10.17460937 20.830625 -10.16796875 22.03125 C-10.20057939 24.92882002 -10.20057939 24.92882002 -9 27 C-7.10466658 27.46523063 -7.10466658 27.46523063 -4.9375 27.625 C-3.638125 27.74875 -2.33875 27.8725 -1 28 C-0.67 23.05 -0.34 18.1 0 13 C0.33 13 0.66 13 1 13 C1.07347656 14.26457031 1.07347656 14.26457031 1.1484375 15.5546875 C1.22320312 16.65039062 1.29796875 17.74609375 1.375 18.875 C1.44460938 19.96554688 1.51421875 21.05609375 1.5859375 22.1796875 C1.73253491 25.13046474 1.73253491 25.13046474 4 27 C3.34 27 2.68 27 2 27 C2 27.66 2 28.32 2 29 C-2.78002787 30.50771907 -7.08484912 29.58205734 -12 29 C-12 23.39 -12 17.78 -12 12 C-13.32 12.33 -14.64 12.66 -16 13 C-16.33 12.01 -16.66 11.02 -17 10 C-17.66 10 -18.32 10 -19 10 C-19.33 10.66 -19.66 11.32 -20 12 C-19.86210108 9.03517326 -19.71055664 6.78765516 -17.66796875 4.5234375 C-11.85400557 -0.31445887 -7.41457697 -0.7842341 0 0 Z " fill="#DADBDB" transform="translate(416,172)"/>
<path d="M0 0 C3.63 0 7.26 0 11 0 C11 7.26 11 14.52 11 22 C10.34 22 9.68 22 9 22 C8.938125 22.61875 8.87625 23.2375 8.8125 23.875 C8 26 8 26 5.4375 27.25 C4.633125 27.4975 3.82875 27.745 3 28 C3 27.01 3 26.02 3 25 C1.68 24.34 0.36 23.68 -1 23 C0.32 23 1.64 23 3 23 C3 20.36 3 17.72 3 15 C1.35 15.33 -0.3 15.66 -2 16 C-3.01660814 11.36878515 -2.9642744 7.64604938 -2 3 C-1.34 2.01 -0.68 1.02 0 0 Z " fill="#CDCFD1" transform="translate(430,216)"/>
<path d="M0 0 C1.79908711 2.69863066 2.57669227 4.4836516 3.47265625 7.52734375 C3.73240234 8.40197266 3.99214844 9.27660156 4.25976562 10.17773438 C4.52466797 11.08845703 4.78957031 11.99917969 5.0625 12.9375 C5.33126953 13.84435547 5.60003906 14.75121094 5.87695312 15.68554688 C6.9866497 19.44633902 8.0487362 23.19494482 9 27 C5.7 27 2.4 27 -1 27 C-4.2334489 20.53310221 -5.69860662 15.21837147 -6 8 C-5.34 8 -4.68 8 -4 8 C-4.33 7.01 -4.66 6.02 -5 5 C-3.68 4.67 -2.36 4.34 -1 4 C-0.67 2.68 -0.34 1.36 0 0 Z " fill="#DADCDD" transform="translate(354,181)"/>
<path d="M0 0 C0.53216189 4.34598874 0.27470707 7.33606279 -2.1875 10.9375 C-4.55755252 13.50840443 -5.7729374 13.96983273 -9.29296875 14.4375 C-12.5574481 14.4375 -15.75059347 14.30372791 -19 14 C-19.33 12.68 -19.66 11.36 -20 10 C-19.34 10 -18.68 10 -18 10 C-17.67 8.35 -17.34 6.7 -17 5 C-16.34 5 -15.68 5 -15 5 C-14.67 4.01 -14.34 3.02 -14 2 C-10.52676476 0.84225492 -7.64187701 1 -4 1 C-2 0 -2 0 0 0 Z " fill="#C32829" transform="translate(232,210)"/>
<path d="M0 0 C1.37478516 0.01740234 1.37478516 0.01740234 2.77734375 0.03515625 C3.69644531 0.04417969 4.61554688 0.05320313 5.5625 0.0625 C6.27277344 0.07410156 6.98304688 0.08570313 7.71484375 0.09765625 C10.20895287 4.79244989 9.79222794 8.04223812 8.71484375 13.09765625 C7.72484375 13.75765625 6.73484375 14.41765625 5.71484375 15.09765625 C5.71484375 15.75765625 5.71484375 16.41765625 5.71484375 17.09765625 C4.72484375 17.09765625 3.73484375 17.09765625 2.71484375 17.09765625 C1.72484375 19.57265625 1.72484375 19.57265625 0.71484375 22.09765625 C-0.2193927 19.08733881 -0.32965536 18.23115357 0.71484375 15.09765625 C0.05484375 14.76765625 -0.60515625 14.43765625 -1.28515625 14.09765625 C-1.28515625 13.10765625 -1.28515625 12.11765625 -1.28515625 11.09765625 C-2.60515625 11.09765625 -3.92515625 11.09765625 -5.28515625 11.09765625 C-4.97733129 9.45094213 -4.66376391 7.80530049 -4.34765625 6.16015625 C-4.17363281 5.24363281 -3.99960937 4.32710937 -3.8203125 3.3828125 C-3.05870997 0.1307141 -3.05870997 0.1307141 0 0 Z " fill="#CED0D1" transform="translate(344.28515625,171.90234375)"/>
<path d="M0 0 C0.433125 0.474375 0.86625 0.94875 1.3125 1.4375 C3.02309613 3.23686957 3.02309613 3.23686957 6 4 C6 9.61 6 15.22 6 21 C0 24 0 24 -3 24 C-4.57152719 20.85694562 -4.14318589 17.508726 -4.125 14.0625 C-4.12886719 13.33353516 -4.13273437 12.60457031 -4.13671875 11.85351562 C-4.1308304 8.64142264 -4.02261853 6.0678556 -3 3 C-2.01 3 -1.02 3 0 3 C0 2.01 0 1.02 0 0 Z " fill="#DCDFDF" transform="translate(366,177)"/>
<path d="M0 0 C3.48724897 3.80427161 5.0625 5.99803494 5.0625 11.25 C4.4025 11.25 3.7425 11.25 3.0625 11.25 C3.0625 11.91 3.0625 12.57 3.0625 13.25 C0.19525314 12.67655063 -0.7989515 12.3885485 -2.9375 10.25 C-3.5975 11.57 -4.2575 12.89 -4.9375 14.25 C-5.46762738 12.96211992 -5.9863329 11.66953322 -6.5 10.375 C-6.79003906 9.65570313 -7.08007812 8.93640625 -7.37890625 8.1953125 C-7.9375 6.25 -7.9375 6.25 -6.9375 4.25 C-6.2775 4.25 -5.6175 4.25 -4.9375 4.25 C-5.9275 2.93 -6.9175 1.61 -7.9375 0.25 C-9.9175 1.24 -9.9175 1.24 -11.9375 2.25 C-11.9375 1.26 -11.9375 0.27 -11.9375 -0.75 C-12.9275 -0.75 -13.9175 -0.75 -14.9375 -0.75 C-15.2675 0.24 -15.5975 1.23 -15.9375 2.25 C-17.27083333 3.58333333 -18.60416667 4.91666667 -19.9375 6.25 C-22.0625 5.875 -22.0625 5.875 -23.9375 5.25 C-22.47913185 1.40521125 -20.57291701 0.0677085 -16.9375 -1.75 C-11.2777299 -3.56112643 -5.08477231 -3.02922606 0 0 Z " fill="#D2D4D6" transform="translate(327.9375,217.75)"/>
<path d="M0 0 C1.65 0 3.3 0 5 0 C5 0.99 5 1.98 5 3 C5.763125 2.484375 6.52625 1.96875 7.3125 1.4375 C8.199375 0.963125 9.08625 0.48875 10 0 C10.99 0.33 11.98 0.66 13 1 C13 7.27 13 13.54 13 20 C10.36 20 7.72 20 5 20 C5 15.38 5 10.76 5 6 C2.36 6 -0.28 6 -3 6 C-3 5.67 -3 5.34 -3 5 C-1.02 5 0.96 5 3 5 C3 3.68 3 2.36 3 1 C2.01 0.67 1.02 0.34 0 0 Z " fill="#EBEEEF" transform="translate(285,231)"/>
<path d="M0 0 C1.4540625 0.0309375 1.4540625 0.0309375 2.9375 0.0625 C2.9375 1.3825 2.9375 2.7025 2.9375 4.0625 C2.2775 4.7225 1.6175 5.3825 0.9375 6.0625 C-0.3825 6.0625 -1.7025 6.0625 -3.0625 6.0625 C-3.0625 10.0225 -3.0625 13.9825 -3.0625 18.0625 C-5.7025 18.0625 -8.3425 18.0625 -11.0625 18.0625 C-11.0625 12.4525 -11.0625 6.8425 -11.0625 1.0625 C-8.7525 1.0625 -6.4425 1.0625 -4.0625 1.0625 C-3.0625 0.0625 -3.0625 0.0625 0 0 Z " fill="#EDEEEE" transform="translate(314.0625,189.9375)"/>
<path d="M0 0 C1.89213369 2.38573379 3.02391783 4.07175348 4 7 C4.66 7.33 5.32 7.66 6 8 C5.67 7.01 5.34 6.02 5 5 C11.625 2 11.625 2 15 2 C15.66 1.34 16.32 0.68 17 0 C17.37849885 6.18214783 17.00431136 10.52786145 14 16 C11.8125 18.4375 11.8125 18.4375 10 20 C8 19 8 19 6.875 16.6875 C6 14 6 14 6 10 C4.02 9.34 2.04 8.68 0 8 C0 5.36 0 2.72 0 0 Z " fill="#DADBDC" transform="translate(376,188)"/>
<path d="M0 0 C0.33 0.66 0.66 1.32 1 2 C0.01 2 -0.98 2 -2 2 C-2.33 3.32 -2.66 4.64 -3 6 C-3.66 6 -4.32 6 -5 6 C-5 6.66 -5 7.32 -5 8 C-6.32 8 -7.64 8 -9 8 C-9.33 9.32 -9.66 10.64 -10 12 C-12.97 12 -15.94 12 -19 12 C-19.25 6.375 -19.25 6.375 -17 3 C-16.34 3 -15.68 3 -15 3 C-15 2.34 -15 1.68 -15 1 C-9.91068953 -1.21841738 -5.33825593 -1.39356576 0 0 Z " fill="#C6C9CB" transform="translate(411,216)"/>
<path d="M0 0 C3.3166366 2.88868349 4.61790867 4.60594965 5 9 C5.49081163 18.73706942 5.49081163 18.73706942 3 23 C3 21.68 3 20.36 3 19 C2.01 19 1.02 19 0 19 C0 18.34 0 17.68 0 17 C-1.65 18.32 -3.3 19.64 -5 21 C-4.67 21.66 -4.34 22.32 -4 23 C-10.4 25.21538462 -10.4 25.21538462 -13.4375 24.125 C-13.953125 23.75375 -14.46875 23.3825 -15 23 C-11.04 22.505 -11.04 22.505 -7 22 C-6.81824219 20.87851563 -6.81824219 20.87851563 -6.6328125 19.734375 C-6.38144531 18.25710937 -6.38144531 18.25710937 -6.125 16.75 C-5.96257812 15.77546875 -5.80015625 14.8009375 -5.6328125 13.796875 C-4.78051744 10.02994126 -3.73050595 7.73050595 -1 5 C-1 4.34 -1 3.68 -1 3 C-1.66 2.67 -2.32 2.34 -3 2 C-2.01 2 -1.02 2 0 2 C0 1.34 0 0.68 0 0 Z " fill="#D6D8D9" transform="translate(295,177)"/>
<path d="M0 0 C2.36328125 2.03125 2.36328125 2.03125 4 4 C2.25 4.6875 2.25 4.6875 0 5 C-2.25 3.5625 -2.25 3.5625 -4 2 C-3.65555119 4.47266765 -3.65555119 4.47266765 -3 7 C-2.34 7.33 -1.68 7.66 -1 8 C-1.33 8.99 -1.66 9.98 -2 11 C-2.66 10.67 -3.32 10.34 -4 10 C-7 9.66666667 -7 9.66666667 -10 10 C-10.99 11.485 -10.99 11.485 -12 13 C-12 11.68 -12 10.36 -12 9 C-14.89234315 8.17361624 -16.88742431 8 -20 8 C-19.9375 6.25 -19.9375 6.25 -19 4 C-13.35727527 -0.51417978 -7.09135848 -1.36026058 0 0 Z " fill="#CDD0D1" transform="translate(384,172)"/>
<path d="M0 0 C3 1 3 1 4 3 C4.20264068 5.49827009 4.32323445 7.9362828 4.375 10.4375 C4.41238281 11.11876953 4.44976562 11.80003906 4.48828125 12.50195312 C4.5234375 14.49609375 4.5234375 14.49609375 4 18 C1.6640625 20.03515625 1.6640625 20.03515625 -1 21 C-1.99 20.67 -2.98 20.34 -4 20 C-4.33 15.05 -4.66 10.1 -5 5 C-3.35 4.34 -1.7 3.68 0 3 C0 2.01 0 1.02 0 0 Z " fill="#E7EAEA" transform="translate(421,177)"/>
<path d="M0 0 C4.62 0 9.24 0 14 0 C13.67 0.66 13.34 1.32 13 2 C12.34 2 11.68 2 11 2 C11.66 2.66 12.32 3.32 13 4 C13.66 4 14.32 4 15 4 C14.67 4.99 14.34 5.98 14 7 C12.02 7 10.04 7 8 7 C8 8.65 8 10.3 8 12 C5.03 11.505 5.03 11.505 2 11 C2 11.66 2 12.32 2 13 C1.34 13 0.68 13 0 13 C0 8.71 0 4.42 0 0 Z " fill="#EDEFF0" transform="translate(303,173)"/>
<path d="M0 0 C0.66 0.33 1.32 0.66 2 1 C-0.625 5.875 -0.625 5.875 -4 7 C0.62 7 5.24 7 10 7 C10 7.33 10 7.66 10 8 C9.030625 8.309375 8.06125 8.61875 7.0625 8.9375 C4.15934208 9.69523342 4.15934208 9.69523342 3 11 C2.9008243 13.14394519 2.8702985 15.29126732 2.875 17.4375 C2.87242187 18.61183594 2.86984375 19.78617188 2.8671875 20.99609375 C2.79234454 23.9240809 2.79234454 23.9240809 4 26 C5.89533342 26.46523063 5.89533342 26.46523063 8.0625 26.625 C9.361875 26.74875 10.66125 26.8725 12 27 C12.33 22.05 12.66 17.1 13 12 C13.33 12 13.66 12 14 12 C14.07347656 13.26457031 14.07347656 13.26457031 14.1484375 14.5546875 C14.22320312 15.65039062 14.29796875 16.74609375 14.375 17.875 C14.44460938 18.96554688 14.51421875 20.05609375 14.5859375 21.1796875 C14.73253491 24.13046474 14.73253491 24.13046474 17 26 C16.34 26 15.68 26 15 26 C15 26.66 15 27.32 15 28 C10.21997213 29.50771907 5.91515088 28.58205734 1 28 C1 22.39 1 16.78 1 11 C-0.32 11.33 -1.64 11.66 -3 12 C-3.33 11.01 -3.66 10.02 -4 9 C-4.66 9 -5.32 9 -6 9 C-6.33 9.66 -6.66 10.32 -7 11 C-6.85969405 7.98342209 -6.70648535 5.76158727 -4.59765625 3.48828125 C-3.11095765 2.26743934 -1.55865102 1.12753478 0 0 Z " fill="#B1B4B6" transform="translate(403,173)"/>
<path d="M0 0 C3.465 1.98 3.465 1.98 7 4 C7 3.34 7 2.68 7 2 C7.99 2 8.98 2 10 2 C10 5.3 10 8.6 10 12 C9.34 12 8.68 12 8 12 C7.67 13.65 7.34 15.3 7 17 C6.34 16.67 5.68 16.34 5 16 C5 15.34 5 14.68 5 14 C4.34 14 3.68 14 3 14 C2.67 14.66 2.34 15.32 2 16 C0 14 0 14 -0.1953125 10.7421875 C-0.17210937 9.46601563 -0.14890625 8.18984375 -0.125 6.875 C-0.10695313 5.59367188 -0.08890625 4.31234375 -0.0703125 2.9921875 C-0.04710937 2.00476563 -0.02390625 1.01734375 0 0 Z " fill="#D9DBDD" transform="translate(324,227)"/>
<path d="M0 0 C8.32879866 1.38488221 15.51515806 9.05495914 20.7578125 15.23828125 C22 17 22 17 23 20 C23.66 20 24.32 20 25 20 C24.67 20.66 24.34 21.32 24 22 C20.23145777 20.74381926 19.92041544 19.33985294 18 16 C17.34 15.67 16.68 15.34 16 15 C16 14.34 16 13.68 16 13 C13.69 12.67 11.38 12.34 9 12 C8.67 12.99 8.34 13.98 8 15 C0 4.18918919 0 4.18918919 0 0 Z " fill="#932726" transform="translate(189,129)"/>
<path d="M0 0 C0.33 0 0.66 0 1 0 C1.05420701 2.56278699 1.09377007 5.12441483 1.125 7.6875 C1.14175781 8.40873047 1.15851563 9.12996094 1.17578125 9.87304688 C1.21383437 14.03986364 0.98759768 17.30388513 -1 21 C-6.52535651 26.23454827 -10.73792064 26.12103466 -18 26 C-18 25.67 -18 25.34 -18 25 C-16.35 25 -14.7 25 -13 25 C-12.87625 24.21625 -12.7525 23.4325 -12.625 22.625 C-12 20 -12 20 -10 18 C-9.01 18 -8.02 18 -7 18 C-7 17.34 -7 16.68 -7 16 C-6.34 16 -5.68 16 -5 16 C-4.34 14.68 -3.68 13.36 -3 12 C-2.01 12 -1.02 12 0 12 C0 8.04 0 4.08 0 0 Z " fill="#DEDFDE" transform="translate(425,183)"/>
<path d="M0 0 C4.54805635 -0.17835515 7.8794254 0.00214565 12 2 C12 2.66 12 3.32 12 4 C12.99 4.33 13.98 4.66 15 5 C16.35439668 7.70879335 16.06501451 10.00933268 16 13 C14.54257537 13.08096803 13.08387193 13.13917774 11.625 13.1875 C10.81289063 13.22230469 10.00078125 13.25710937 9.1640625 13.29296875 C8.44992187 13.19628906 7.73578125 13.09960938 7 13 C6.34 12.01 5.68 11.02 5 10 C2.41619823 9.74969023 2.41619823 9.74969023 0 10 C0 9.34 0 8.68 0 8 C1.65 7.67 3.3 7.34 5 7 C5 6.01 5 5.02 5 4 C5 3.34 5 2.68 5 2 C3.35 1.67 1.7 1.34 0 1 C0 0.67 0 0.34 0 0 Z " fill="#B0B5B9" transform="translate(345,215)"/>
<path d="M0 0 C2.375 1.5 2.375 1.5 4 3 C3.814375 3.5775 3.62875 4.155 3.4375 4.75 C2.95976454 7.20692525 3.24270636 8.64397534 4 11 C3.34 11 2.68 11 2 11 C1.67 12.65 1.34 14.3 1 16 C-2.55773386 14.22113307 -3.78734768 10.63795695 -5 7 C-6.98 7 -8.96 7 -11 7 C-10.34 6.67 -9.68 6.34 -9 6 C-9.33 5.01 -9.66 4.02 -10 3 C-6.69720869 -0.04873044 -4.451096 -0.556387 0 0 Z " fill="#EDEEF0" transform="translate(291,173)"/>
<path d="M0 0 C8.43021617 0 14.22073024 5.73982592 20.33203125 11.01171875 C22 13 22 13 22 17 C18.7 16.34 15.4 15.68 12 15 C12 14.34 12 13.68 12 13 C12.99 13 13.98 13 15 13 C14.360625 12.731875 13.72125 12.46375 13.0625 12.1875 C11 11 11 11 10 8 C9.34 8 8.68 8 8 8 C8 7.34 8 6.68 8 6 C7.236875 5.71125 6.47375 5.4225 5.6875 5.125 C3 4 3 4 0 2 C0 1.34 0 0.68 0 0 Z " fill="#951114" transform="translate(200,167)"/>
<path d="M0 0 C1.65 0.33 3.3 0.66 5 1 C5.66 4.96 6.32 8.92 7 13 C6.34 13 5.68 13 5 13 C4.938125 13.61875 4.87625 14.2375 4.8125 14.875 C4 17 4 17 1.4375 18.25 C0.633125 18.4975 -0.17125 18.745 -1 19 C-1 18.01 -1 17.02 -1 16 C-2.32 15.34 -3.64 14.68 -5 14 C-3.68 14 -2.36 14 -1 14 C-1.14308594 12.98679688 -1.14308594 12.98679688 -1.2890625 11.953125 C-1.39992188 11.06109375 -1.51078125 10.1690625 -1.625 9.25 C-1.74101562 8.36828125 -1.85703125 7.4865625 -1.9765625 6.578125 C-2.00207817 3.77140122 -1.44843844 2.36615134 0 0 Z " fill="#ECEEED" transform="translate(434,225)"/>
<path d="M0 0 C0.99 0.33 1.98 0.66 3 1 C3.73046875 3.06640625 3.73046875 3.06640625 4.1875 5.5625 C4.34605469 6.38878906 4.50460938 7.21507812 4.66796875 8.06640625 C4.77753906 8.70449219 4.88710937 9.34257812 5 10 C4.01 10 3.02 10 2 10 C1.97421875 10.64066406 1.9484375 11.28132813 1.921875 11.94140625 C1.5207247 18.0589484 0.42853112 21.9125022 -3 27 C-3.66 27 -4.32 27 -5 27 C-5 27.66 -5 28.32 -5 29 C-6.98 29.99 -8.96 30.98 -11 32 C-11 31.34 -11 30.68 -11 30 C-10.34 30 -9.68 30 -9 30 C-8.67 28.68 -8.34 27.36 -8 26 C-6.68 25.67 -5.36 25.34 -4 25 C-2.38844572 18.11426809 -1.85334919 12.31766156 -3.00390625 5.3125 C-3 3 -3 3 -1.52734375 1.1875 C-1.02332031 0.795625 -0.51929688 0.40375 0 0 Z M0 7 C1 9 1 9 1 9 Z " fill="#AD282D" transform="translate(213,252)"/>
<path d="M0 0 C1.63001953 0.15275391 1.63001953 0.15275391 3.29296875 0.30859375 C4.12441406 0.39238281 4.95585937 0.47617188 5.8125 0.5625 C5.4825 2.5425 5.1525 4.5225 4.8125 6.5625 C-2.7775 6.5625 -10.3675 6.5625 -18.1875 6.5625 C-16.13734757 5.53742378 -14.08464292 4.51547962 -12 3.5625 C-10.01548477 2.69105431 -10.01548477 2.69105431 -9.1875 0.5625 C-5.76060364 -0.57979879 -3.57647782 -0.34611076 0 0 Z " fill="#EEEFF0" transform="translate(411.1875,244.4375)"/>
<path d="M0 0 C0.66 0 1.32 0 2 0 C2 0.66 2 1.32 2 2 C2.99 2 3.98 2 5 2 C5.46707789 6.01686987 5.32150834 7.56501812 2.875 10.875 C-0.43498188 13.32150834 -1.98313013 13.46707789 -6 13 C-6.33 11.02 -6.66 9.04 -7 7 C-6.01 6.34 -5.02 5.68 -4 5 C-3.319375 4.13375 -2.63875 3.2675 -1.9375 2.375 C-1.298125 1.59125 -0.65875 0.8075 0 0 Z " fill="#EEEFEE" transform="translate(293,194)"/>
<path d="M0 0 C1.99609375 0.015625 1.99609375 0.015625 4.4375 0.25 C5.64212891 0.35054687 5.64212891 0.35054687 6.87109375 0.453125 C9 1 9 1 11 4 C10.01 4 9.02 4 8 4 C8 4.66 8 5.32 8 6 C12.29 6.33 16.58 6.66 21 7 C21 7.66 21 8.32 21 9 C21.90492188 8.96519531 21.90492188 8.96519531 22.828125 8.9296875 C24.02695313 8.90261719 24.02695313 8.90261719 25.25 8.875 C26.03890625 8.85179687 26.8278125 8.82859375 27.640625 8.8046875 C30.20731941 9.0171622 31.7916067 9.71345895 34 11 C33.67 11.99 33.34 12.98 33 14 C32.175 13.52433594 31.35 13.04867187 30.5 12.55859375 C26.01359982 10.56074367 21.74324736 10.255868 16.921875 9.91601562 C10.55671424 9.31472658 6.23690441 6.70767157 2 2 C1.01 3.32 0.02 4.64 -1 6 C-1.042721 4.33388095 -1.04063832 2.66617115 -1 1 C-0.67 0.67 -0.34 0.34 0 0 Z " fill="#A82B2B" transform="translate(174,198)"/>
<path d="M0 0 C3.375 0.5625 3.375 0.5625 7 2 C8.6518807 5.56806232 9.47770022 7.66926367 8.125 11.4375 C7.75375 11.953125 7.3825 12.46875 7 13 C4.69 12.67 2.38 12.34 0 12 C-0.66 9.69 -1.32 7.38 -2 5 C-1.34 4.67 -0.68 4.34 0 4 C0 2.68 0 1.36 0 0 Z " fill="#DBDDDE" transform="translate(408,217)"/>
<path d="M0 0 C5.625 -0.25 5.625 -0.25 9 2 C8.67 3.65 8.34 5.3 8 7 C7.01 7.33 6.02 7.66 5 8 C3.79117904 10.00016466 3.79117904 10.00016466 3 12 C2.34 12 1.68 12 1 12 C1 11.34 1 10.68 1 10 C0.01 9.67 -0.98 9.34 -2 9 C-1.34 8.01 -0.68 7.02 0 6 C-0.99 6 -1.98 6 -3 6 C-2 4 -1 2 0 0 Z " fill="#C9CDCE" transform="translate(407,228)"/>
<path d="M0 0 C0.53216189 4.34598874 0.27470707 7.33606279 -2.1875 10.9375 C-4.55755252 13.50840443 -5.7729374 13.96983273 -9.29296875 14.4375 C-12.5574481 14.4375 -15.75059347 14.30372791 -19 14 C-19 13.67 -19 13.34 -19 13 C-15.7 13 -12.4 13 -9 13 C-9 12.34 -9 11.68 -9 11 C-7.68 11 -6.36 11 -5 11 C-5 10.01 -5 9.02 -5 8 C-5.9590625 7.566875 -5.9590625 7.566875 -6.9375 7.125 C-9 6 -9 6 -10 4 C-9.67 3.34 -9.34 2.68 -9 2 C-2.88888889 0 -2.88888889 0 0 0 Z " fill="#9C282A" transform="translate(232,210)"/>
<path d="M0 0 C0 0.33 0 0.66 0 1 C-1.98 1 -3.96 1 -6 1 C-6 0.34 -6 -0.32 -6 -1 C-9.43230448 -0.73606499 -9.43230448 -0.73606499 -13 0 C-13.99 1.485 -13.99 1.485 -15 3 C-15.2475 2.195625 -15.495 1.39125 -15.75 0.5625 C-16.72238859 -2.171081 -16.72238859 -2.171081 -19.125 -2.8125 C-20.053125 -2.9053125 -20.053125 -2.9053125 -21 -3 C-20.34 -2.01 -19.68 -1.02 -19 0 C-19 0.99 -19 1.98 -19 3 C-18.01 3.33 -17.02 3.66 -16 4 C-17.65 4.33 -19.3 4.66 -21 5 C-21 4.01 -21 3.02 -21 2 C-23.64 1.01 -26.28 0.02 -29 -1 C-29 -1.66 -29 -2.32 -29 -3 C-19.39813736 -4.63330653 -8.69468968 -4.87750884 0 0 Z " fill="#862228" transform="translate(174,152)"/>
<path d="M0 0 C2.60423592 -0.02697137 5.20819244 -0.04682489 7.8125 -0.0625 C8.55048828 -0.07087891 9.28847656 -0.07925781 10.04882812 -0.08789062 C13.29922068 -0.10259828 15.89404895 -0.03531702 19 1 C20.125 6.75 20.125 6.75 19 9 C15.52285976 10.41661269 12.5974748 9.73584712 9 9 C9 11.64 9 14.28 9 17 C8.67 17 8.34 17 8 17 C8 14.03 8 11.06 8 8 C9.98 7.67 11.96 7.34 14 7 C13.01 6.67 12.02 6.34 11 6 C11 5.01 11 4.02 11 3 C11.66 2.67 12.32 2.34 13 2 C8.71 1.67 4.42 1.34 0 1 C0 0.67 0 0.34 0 0 Z " fill="#D6D9DB" transform="translate(303,172)"/>
<path d="M0 0 C0.66 1.32 1.32 2.64 2 4 C3.32 4 4.64 4 6 4 C6.33 4.66 6.66 5.32 7 6 C7.99 4.68 8.98 3.36 10 2 C9.5205537 6.21912747 8.83374881 8.79663178 6 12 C5.34 11.34 4.68 10.68 4 10 C0.90073181 10.32198966 0.90073181 10.32198966 -2 11 C-2.33 10.34 -2.66 9.68 -3 9 C-6.02934491 8.34227572 -6.02934491 8.34227572 -9 8 C-8.67 7.34 -8.34 6.68 -8 6 C-5.69 6 -3.38 6 -1 6 C-0.67 4.02 -0.34 2.04 0 0 Z " fill="#BAC0C3" transform="translate(323,237)"/>
<path d="M0 0 C0.99 0 1.98 0 3 0 C3 0.99 3 1.98 3 3 C4.32 2.01 5.64 1.02 7 0 C8.5 1.375 8.5 1.375 10 3 C10 3.66 10 4.32 10 5 C9.34 5 8.68 5 8 5 C8 5.66 8 6.32 8 7 C6.80375 6.95875 5.6075 6.9175 4.375 6.875 C0.57670047 6.86148292 -2.44975618 7.57990247 -6 9 C-6.33 8.01 -6.66 7.02 -7 6 C-6.01 5.67 -5.02 5.34 -4 5 C-3.34 4.154375 -2.68 3.30875 -2 2.4375 C-1.34 1.633125 -0.68 0.82875 0 0 Z " fill="#ECECEC" transform="translate(313,217)"/>
<path d="M0 0 C0.598125 0.185625 1.19625 0.37125 1.8125 0.5625 C4.16408762 1.22093687 4.16408762 1.22093687 7 0 C7.33 2.64 7.66 5.28 8 8 C8.66 8 9.32 8 10 8 C10.639375 8.66 11.27875 9.32 11.9375 10 C13.88012332 12.34807292 13.88012332 12.34807292 17 12 C17.33 13.65 17.66 15.3 18 17 C18.66 17 19.32 17 20 17 C19.67 17.99 19.34 18.98 19 20 C12.17432507 14.10056488 5.73614539 7.98313352 0 1 C0 0.67 0 0.34 0 0 Z " fill="#992B2F" transform="translate(137,245)"/>
<path d="M0 0 C2.64 0.66 5.28 1.32 8 2 C7.01 2.33 6.02 2.66 5 3 C5 3.66 5 4.32 5 5 C4.01 5 3.02 5 2 5 C1.67 6.65 1.34 8.3 1 10 C-3.12751449 9.39301257 -6.3321148 7.96189209 -10 6 C-8.68 5.34 -7.36 4.68 -6 4 C-5.67 4.66 -5.34 5.32 -5 6 C-3.68 5.67 -2.36 5.34 -1 5 C-0.67 3.35 -0.34 1.7 0 0 Z " fill="#CCCFD1" transform="translate(348,229)"/>
<path d="M0 0 C0.33 0 0.66 0 1 0 C1.05420701 2.56278699 1.09377007 5.12441483 1.125 7.6875 C1.14175781 8.40873047 1.15851563 9.12996094 1.17578125 9.87304688 C1.21372279 14.02764523 1.02677215 17.32989908 -1 21 C-3.625 22.8125 -3.625 22.8125 -6 24 C-6.33 22.35 -6.66 20.7 -7 19 C-5.68 18.67 -4.36 18.34 -3 18 C-3.66 16.68 -4.32 15.36 -5 14 C-4.34 13.34 -3.68 12.68 -3 12 C-2.01 12 -1.02 12 0 12 C0 8.04 0 4.08 0 0 Z " fill="#BDC0C2" transform="translate(425,183)"/>
<path d="M0 0 C0.86625 0.556875 0.86625 0.556875 1.75 1.125 C2.01218749 4.27124993 1.99754367 5.74337017 0.25 8.4375 C-0.4925 9.2728125 -0.4925 9.2728125 -1.25 10.125 C-3.75 9 -3.75 9 -6.25 7.125 C-6.5625 3.9375 -6.5625 3.9375 -6.25 1.125 C-2.80384615 -1.09038462 -2.80384615 -1.09038462 0 0 Z M-2.25 6.125 C-1.25 8.125 -1.25 8.125 -1.25 8.125 Z " fill="#E3E5E6" transform="translate(324.25,196.875)"/>
<path d="M0 0 C0.556875 0.309375 1.11375 0.61875 1.6875 0.9375 C3.98169364 2.12452667 3.98169364 2.12452667 6.625 2.375 C9 3 9 3 10.25 4.9375 C10.4975 5.618125 10.745 6.29875 11 7 C11.33 7.66 11.66 8.32 12 9 C9.35261084 10.4606285 8.10551666 11 5 11 C1.44415588 8.582026 0.96297991 5.00007039 0 1 C0 0.67 0 0.34 0 0 Z " fill="#EFEFF0" transform="translate(379,173)"/>
<path d="M0 0 C2.96175123 0.61277612 4.38058783 1.25372522 7 3 C6.67 3.66 6.34 4.32 6 5 C5.7525 5.66 5.505 6.32 5.25 7 C3.59819267 9.64289172 1.90999654 10.08105372 -1 11 C-2.1875 9.4375 -2.1875 9.4375 -3 7 C-1.625 3.25 -1.625 3.25 0 0 Z " fill="#C8CCCE" transform="translate(416,173)"/>
<path d="M0 0 C0.66 0.33 1.32 0.66 2 1 C1.835 2.093125 1.67 3.18625 1.5 4.3125 C0.93281816 7.87525873 0.93281816 7.87525873 1 11 C1 11.66 1 12.32 1 13 C-1.5 14.625 -1.5 14.625 -4 16 C-4.33 12.37 -4.66 8.74 -5 5 C-3.35 4.34 -1.7 3.68 0 3 C0 2.01 0 1.02 0 0 Z " fill="#EEEFF0" transform="translate(421,177)"/>
<path d="M0 0 C0.33 0 0.66 0 1 0 C1.04898437 0.84304687 1.09796875 1.68609375 1.1484375 2.5546875 C1.22320312 3.65039062 1.29796875 4.74609375 1.375 5.875 C1.44460938 6.96554688 1.51421875 8.05609375 1.5859375 9.1796875 C1.73253491 12.13046474 1.73253491 12.13046474 4 14 C3.34 14 2.68 14 2 14 C2 14.66 2 15.32 2 16 C-2.78002787 17.50771907 -7.08484912 16.58205734 -12 16 C-12 11.38 -12 6.76 -12 2 C-11.67 2 -11.34 2 -11 2 C-10.93941406 2.69867188 -10.87882812 3.39734375 -10.81640625 4.1171875 C-10.73261719 5.02726563 -10.64882813 5.93734375 -10.5625 6.875 C-10.48128906 7.77992188 -10.40007812 8.68484375 -10.31640625 9.6171875 C-10.13010715 12.01110861 -10.13010715 12.01110861 -9 14 C-7.10466658 14.46523063 -7.10466658 14.46523063 -4.9375 14.625 C-3.638125 14.74875 -2.33875 14.8725 -1 15 C-0.67 10.05 -0.34 5.1 0 0 Z " fill="#95999A" transform="translate(416,185)"/>
<path d="M0 0 C2.64 0 5.28 0 8 0 C7.34 2.31 6.68 4.62 6 7 C3.36 7 0.72 7 -2 7 C-2 4 -2 4 0 2 C0 1.34 0 0.68 0 0 Z " fill="#EEEFEF" transform="translate(406,201)"/>
<path d="M0 0 C-0.99 0.495 -0.99 0.495 -2 1 C-2.65213292 3.02463255 -2.65213292 3.02463255 -3 5 C-3.66 5 -4.32 5 -5 5 C-5 4.01 -5 3.02 -5 2 C-5.99 2 -6.98 2 -8 2 C-8.33 2.99 -8.66 3.98 -9 5 C-10.33333333 6.33333333 -11.66666667 7.66666667 -13 9 C-15.125 8.625 -15.125 8.625 -17 8 C-15.54163185 4.15521125 -13.63541701 2.8177085 -10 1 C-6.67286218 -0.18059729 -3.50816855 -0.0797311 0 0 Z " fill="#C7CDD0" transform="translate(321,215)"/>
<path d="M0 0 C2.0625 1.5 2.0625 1.5 4 4 C4.05928384 6.82406647 3.55954815 9.20225927 3 12 C0.69 12 -1.62 12 -4 12 C-3.67 11.34 -3.34 10.68 -3 10 C-3.99 9.67 -4.98 9.34 -6 9 C-5 7 -5 7 -2 5 C-1.34 5.66 -0.68 6.32 0 7 C0.33 6.34 0.66 5.68 1 5 C0.67 5 0.34 5 0 5 C0 3.35 0 1.7 0 0 Z " fill="#B9BBBF" transform="translate(388,176)"/>
<path d="M0 0 C0.33 0 0.66 0 1 0 C1.06058594 0.74765625 1.12117188 1.4953125 1.18359375 2.265625 C1.26738281 3.25046875 1.35117187 4.2353125 1.4375 5.25 C1.51871094 6.22453125 1.59992188 7.1990625 1.68359375 8.203125 C1.95074584 10.56461753 2.35371968 12.71901065 3 15 C1.68 14.67 0.36 14.34 -1 14 C-0.67 13.34 -0.34 12.68 0 12 C0.07065617 9.95944995 0.08421976 7.91665743 0.0625 5.875 C0.05347656 4.77929688 0.04445313 3.68359375 0.03515625 2.5546875 C0.02355469 1.71164063 0.01195312 0.86859375 0 0 Z M-1 14 C0.2077558 17.62326739 -0.45688872 18.64146369 -2 22 C-3.7074998 20.71937515 -5.37373596 19.38232443 -7 18 C-7 17.34 -7 16.68 -7 16 C-4 14 -4 14 -1 14 Z " fill="#ADB1B2" transform="translate(371,185)"/>
<path d="M0 0 C0.99 0 1.98 0 3 0 C5.125 7.625 5.125 7.625 4 11 C4.66 11.66 5.32 12.32 6 13 C4.35 12.67 2.7 12.34 1 12 C-0.47075246 7.58774263 -1.36884358 4.51718381 0 0 Z " fill="#ECEFEF" transform="translate(308,238)"/>
<path d="M0 0 C7.40053524 0.60660125 7.40053524 0.60660125 10 2.3125 C11 4 11 4 11 8 C7.7 7.34 4.4 6.68 1 6 C1 5.34 1 4.68 1 4 C1.99 4 2.98 4 4 4 C2.68 2.68 1.36 1.36 0 0 Z " fill="#751113" transform="translate(211,176)"/>
<path d="M0 0 C-0.33 0.99 -0.66 1.98 -1 3 C-0.34 3.33 0.32 3.66 1 4 C0.01 5.485 0.01 5.485 -1 7 C-3.625 7.1875 -3.625 7.1875 -6 7 C-6.33 5.68 -6.66 4.36 -7 3 C-7.99 3.495 -7.99 3.495 -9 4 C-9 3.01 -9 2.02 -9 1 C-5.8035914 -0.06546953 -3.34252724 -0.07427838 0 0 Z " fill="#EFF0F1" transform="translate(351,216)"/>
<path d="M0 0 C0.66 0 1.32 0 2 0 C1.67 0.66 1.34 1.32 1 2 C0.67 1.34 0.34 0.68 0 0 Z M-3 1 C-1.68 1.66 -0.36 2.32 1 3 C0.67 3.33 0.34 3.66 0 4 C-0.04080783 5.99958364 -0.04254356 8.00045254 0 10 C-2.31 10.33 -4.62 10.66 -7 11 C-7 9.35 -7 7.7 -7 6 C-6.34 6 -5.68 6 -5 6 C-5 5.34 -5 4.68 -5 4 C-4.34 3.67 -3.68 3.34 -3 3 C-3 2.34 -3 1.68 -3 1 Z " fill="#EDEFF1" transform="translate(400,217)"/>
<path d="M0 0 C0.99 0 1.98 0 3 0 C7.46993211 6.98426892 8.15822466 13.78808283 7 22 C5.47265625 23.91796875 5.47265625 23.91796875 4 25 C4 23.35 4 21.7 4 20 C4.33 20 4.66 20 5 20 C5 15.38 5 10.76 5 6 C4.34 6 3.68 6 3 6 C2.67 5.34 2.34 4.68 2 4 C1.01 4.33 0.02 4.66 -1 5 C-0.67 3.35 -0.34 1.7 0 0 Z " fill="#752427" transform="translate(244,184)"/>
<path d="M0 0 C0.33 0 0.66 0 1 0 C1.474377 7.28695785 1.28670939 11.97181491 -3 18 C-3.66 18 -4.32 18 -5 18 C-5 18.66 -5 19.32 -5 20 C-6.98 20.99 -8.96 21.98 -11 23 C-11 22.34 -11 21.68 -11 21 C-10.34 21 -9.68 21 -9 21 C-8.67 19.68 -8.34 18.36 -8 17 C-7.37480469 16.90847656 -6.74960938 16.81695312 -6.10546875 16.72265625 C-5.41066406 16.48417969 -4.71585938 16.24570312 -4 16 C-1.47724232 10.67417824 -0.52136559 5.83929464 0 0 Z " fill="#832127" transform="translate(213,261)"/>
<path d="M0 0 C3.04516202 2.83332467 5.16868601 5.65500311 7.25 9.25 C7.77078125 10.14203125 8.2915625 11.0340625 8.828125 11.953125 C9.21484375 12.62859375 9.6015625 13.3040625 10 14 C7.61328125 13.69140625 7.61328125 13.69140625 5 13 C3.1875 9.9375 3.1875 9.9375 2 7 C1.34 7.66 0.68 8.32 0 9 C0 8.34 0 7.68 0 7 C-0.66 6.67 -1.32 6.34 -2 6 C-1.34 4.02 -0.68 2.04 0 0 Z " fill="#A4262B" transform="translate(214,151)"/>
<path d="M0 0 C7.244298 2.13766171 13.46718285 5.22684019 20 9 C16.86650268 10.04449911 16.01031744 9.93423645 13 9 C13 8.34 13 7.68 13 7 C12.01 7 11.02 7 10 7 C10 6.34 10 5.68 10 5 C7.03 4.505 7.03 4.505 4 4 C3.67 4.66 3.34 5.32 3 6 C3 5.34 3 4.68 3 4 C2.01 3.67 1.02 3.34 0 3 C0 2.01 0 1.02 0 0 Z " fill="#781F22" transform="translate(149,122)"/>
<path d="M0 0 C6.15222436 0.43173504 9.81917949 1.65405342 15 5 C15 5.66 15 6.32 15 7 C16.32 7.33 17.64 7.66 19 8 C19 8.66 19 9.32 19 10 C14.75707468 8.39369175 10.72974893 6.4231838 6.6875 4.375 C6.04232422 4.05015625 5.39714844 3.7253125 4.73242188 3.390625 C3.15402459 2.59558044 1.57688306 1.79804366 0 1 C0 0.67 0 0.34 0 0 Z " fill="#8D232A" transform="translate(165,270)"/>
<path d="M0 0 C3.88192126 3.76774711 7.79531881 7.62797789 11 12 C11 12.66 11 13.32 11 14 C11.99 14.33 12.98 14.66 14 15 C13.01 15.495 13.01 15.495 12 16 C9.375 15.0625 9.375 15.0625 7 14 C7.33 13.01 7.66 12.02 8 11 C7.34 11 6.68 11 6 11 C6 10.34 6 9.68 6 9 C5.01 8.67 4.02 8.34 3 8 C3 7.01 3 6.02 3 5 C2.01 4.67 1.02 4.34 0 4 C0 2.68 0 1.36 0 0 Z " fill="#8B2429" transform="translate(209,196)"/>
<path d="M0 0 C-0.33 0.99 -0.66 1.98 -1 3 C-1.99 3 -2.98 3 -4 3 C-5.20628008 5.33214148 -6.1654738 7.49642139 -7 10 C-9.0625 10.6875 -9.0625 10.6875 -11 11 C-9.66666667 8.33333333 -8.33333333 5.66666667 -7 3 C-7.99 3 -8.98 3 -10 3 C-10 2.34 -10 1.68 -10 1 C-6.52674819 -0.1577506 -3.63932552 -0.06866652 0 0 Z " fill="#8E2223" transform="translate(142,173)"/>
<path d="M0 0 C0.66 0.33 1.32 0.66 2 1 C2 1.66 2 2.32 2 3 C2.66 3 3.32 3 4 3 C5.09506492 6.28519475 5.09960608 8.73663415 5.0625 12.1875 C5.05347656 13.27417969 5.04445312 14.36085937 5.03515625 15.48046875 C5.02355469 16.31191406 5.01195312 17.14335937 5 18 C4.67 18 4.34 18 4 18 C4 14.37 4 10.74 4 7 C2.68 7.33 1.36 7.66 0 8 C-0.66 7.34 -1.32 6.68 -2 6 C-2 4.68 -2 3.36 -2 2 C-1.34 2 -0.68 2 0 2 C0 1.34 0 0.68 0 0 Z " fill="#B92D2E" transform="translate(245,187)"/>
<path d="M0 0 C4.2687882 0.4743098 6.31511656 2.80716564 9 6 C9.8125 8.8125 9.8125 8.8125 10 11 C8 11 8 11 5.5625 8.75 C0 2.7804878 0 2.7804878 0 0 Z " fill="#B42D2D" transform="translate(189,129)"/>
<path d="M0 0 C0.33 0.66 0.66 1.32 1 2 C1.66 2 2.32 2 3 2 C2.58578031 6.83256305 0.53586014 8.82679218 -3 12 C-3.66 11.67 -4.32 11.34 -5 11 C-5 10.01 -5 9.02 -5 8 C-3.66666667 6.66666667 -2.33333333 5.33333333 -1 4 C-0.2127322 1.8618034 -0.2127322 1.8618034 0 0 Z " fill="#B7BCBF" transform="translate(389,196)"/>
<path d="M0 0 C1.98 0.66 3.96 1.32 6 2 C6 3.32 6 4.64 6 6 C3.03 6 0.06 6 -3 6 C-2 2 -2 2 0 0 Z " fill="#E9EBEC" transform="translate(355,222)"/>
<path d="M0 0 C7.55137932 -0.30071865 14.58856436 0.57374434 22 2 C22.33 3.32 22.66 4.64 23 6 C22.01902344 5.52949219 21.03804687 5.05898437 20.02734375 4.57421875 C15.92371354 2.81552009 11.97781884 2.25281999 7.5625 1.8125 C6.83095703 1.73064453 6.09941406 1.64878906 5.34570312 1.56445312 C3.56485534 1.36658115 1.78255073 1.18189293 0 1 C0 0.67 0 0.34 0 0 Z " fill="#812324" transform="translate(185,206)"/>
<path d="M0 0 C1.72413793 5.17241379 1.72413793 5.17241379 2 8 C0.5625 10.3125 0.5625 10.3125 -1 12 C-1.99 11.67 -2.98 11.34 -4 11 C-3.67 8.36 -3.34 5.72 -3 3 C-2.01 2.67 -1.02 2.34 0 2 C0 1.34 0 0.68 0 0 Z " fill="#B52D30" transform="translate(124,197)"/>
<path d="M0 0 C0.66 0 1.32 0 2 0 C2.6875 2.1875 2.6875 2.1875 3 5 C1.625 7.5 1.625 7.5 0 10 C-0.70670728 12.69254991 -0.70670728 12.69254991 -1 15 C-1.33 15 -1.66 15 -2 15 C-2.05406122 13.06280622 -2.09282025 11.12518079 -2.125 9.1875 C-2.14820313 8.10855469 -2.17140625 7.02960938 -2.1953125 5.91796875 C-2 3 -2 3 0 0 Z " fill="#D7DADD" transform="translate(397,182)"/>
<path d="M0 0 C1.11375 0.3403125 1.11375 0.3403125 2.25 0.6875 C1.92 1.6775 1.59 2.6675 1.25 3.6875 C0.59 3.6875 -0.07 3.6875 -0.75 3.6875 C-0.42 5.0075 -0.09 6.3275 0.25 7.6875 C-2.39 7.3575 -5.03 7.0275 -7.75 6.6875 C-7.09 6.3575 -6.43 6.0275 -5.75 5.6875 C-6.08 4.6975 -6.41 3.7075 -6.75 2.6875 C-4.29511132 0.41445492 -3.41240272 -0.38777304 0 0 Z " fill="#EDEFF1" transform="translate(287.75,173.3125)"/>
<path d="M0 0 C0.66 0 1.32 0 2 0 C2 0.66 2 1.32 2 2 C2.66 2 3.32 2 4 2 C4.33 4.64 4.66 7.28 5 10 C-0.4611399 9.11917098 -0.4611399 9.11917098 -3 8 C-4.5 4.875 -4.5 4.875 -5 2 C-2.03 3.98 -2.03 3.98 1 6 C0.835 5.38125 0.67 4.7625 0.5 4.125 C0 2 0 2 0 0 Z " fill="#882224" transform="translate(199,145)"/>
<path d="M0 0 C2.9375 0.75 2.9375 0.75 6 2 C6.875 4.125 6.875 4.125 7 6 C9.31 6 11.62 6 14 6 C12.1875 8 12.1875 8 10 10 C9.01 10 8.02 10 7 10 C6.401875 8.906875 5.80375 7.81375 5.1875 6.6875 C3.70955303 4.08925871 2.30177067 1.95650507 0 0 Z " fill="#771F26" transform="translate(184,281)"/>
<path d="M0 0 C0.66 0.99 1.32 1.98 2 3 C0.6999735 5.90005911 -0.43344913 8.08596207 -3 10 C-6.13671875 10.29296875 -6.13671875 10.29296875 -9.6875 10.1875 C-11.45673828 10.14689453 -11.45673828 10.14689453 -13.26171875 10.10546875 C-14.16535156 10.07066406 -15.06898438 10.03585938 -16 10 C-16 9.67 -16 9.34 -16 9 C-12.7 9 -9.4 9 -6 9 C-6 8.34 -6 7.68 -6 7 C-4.68 7 -3.36 7 -2 7 C-1.34 4.69 -0.68 2.38 0 0 Z " fill="#902629" transform="translate(229,214)"/>
<path d="M0 0 C1.11375 0.3403125 1.11375 0.3403125 2.25 0.6875 C1.59 1.3475 0.93 2.0075 0.25 2.6875 C0.08312552 5.27104218 0.08312552 5.27104218 0.25 7.6875 C-0.74 8.1825 -0.74 8.1825 -1.75 8.6875 C-1.75 8.0275 -1.75 7.3675 -1.75 6.6875 C-3.07 6.6875 -4.39 6.6875 -5.75 6.6875 C-6.08 5.3675 -6.41 4.0475 -6.75 2.6875 C-4.29511132 0.41445492 -3.41240272 -0.38777304 0 0 Z " fill="#BC2D2D" transform="translate(166.75,131.3125)"/>
<path d="M0 0 C1.32 0.66 2.64 1.32 4 2 C4 1.34 4 0.68 4 0 C4.99 0 5.98 0 7 0 C7 1.98 7 3.96 7 6 C4.08517222 6.80967438 2.53886783 7.21845993 -0.3125 6.0625 C-0.869375 5.711875 -1.42625 5.36125 -2 5 C-1.01 5 -0.02 5 1 5 C0.67 3.35 0.34 1.7 0 0 Z " fill="#EEF0EE" transform="translate(349,232)"/>
<path d="M0 0 C2.125 0.9375 2.125 0.9375 4 2 C4 3.32 4 4.64 4 6 C3.34 6 2.68 6 2 6 C1.67 6.99 1.34 7.98 1 9 C0.01 8.34 -0.98 7.68 -2 7 C-2.1875 3.875 -2.1875 3.875 -2 1 C-1.34 0.67 -0.68 0.34 0 0 Z " fill="#ECEDEE" transform="translate(443,187)"/>
<path d="M0 0 C3.68754757 0.49831724 5.60490662 1.10067643 8 4 C6.02 4.66 4.04 5.32 2 6 C2.33 7.98 2.66 9.96 3 12 C1 10.25 1 10.25 -1 8 C-1 4 -1 4 1 2 C1.33 2.33 1.66 2.66 2 3 C2.33 2.34 2.66 1.68 3 1 C2.01 0.67 1.02 0.34 0 0 Z " fill="#AAB1B4" transform="translate(287,173)"/>
<path d="M0 0 C0.99 0.66 1.98 1.32 3 2 C2.67 4.64 2.34 7.28 2 10 C-0.31 9.67 -2.62 9.34 -5 9 C-4.67 8.01 -4.34 7.02 -4 6 C-3.01 6.33 -2.02 6.66 -1 7 C-1.020625 6.030625 -1.04125 5.06125 -1.0625 4.0625 C-1 1 -1 1 0 0 Z " fill="#EDEEEF" transform="translate(358,235)"/>
<path d="M0 0 C0.33 0 0.66 0 1 0 C1.02505615 0.56509277 1.0501123 1.13018555 1.07592773 1.71240234 C1.19179956 4.26683742 1.31456537 6.8208955 1.4375 9.375 C1.47681641 10.26445312 1.51613281 11.15390625 1.55664062 12.0703125 C1.59853516 12.92109375 1.64042969 13.771875 1.68359375 14.6484375 C1.72025146 15.43395996 1.75690918 16.21948242 1.79467773 17.02880859 C1.890891 19.07523496 1.890891 19.07523496 3 21 C3.04022391 23.3329866 3.04320247 25.66706666 3 28 C0.38878154 24.0831723 -0.12423233 21.49219388 -0.09765625 16.89453125 C-0.09443359 15.91162109 -0.09121094 14.92871094 -0.08789062 13.91601562 C-0.07951172 12.89185547 -0.07113281 11.86769531 -0.0625 10.8125 C-0.05798828 9.77673828 -0.05347656 8.74097656 -0.04882812 7.67382812 C-0.0370401 5.11582734 -0.02058515 2.55794267 0 0 Z " fill="#7D2527" transform="translate(125,208)"/>
<path d="M0 0 C0.94875 0.350625 1.8975 0.70125 2.875 1.0625 C5.87060172 2.35026777 5.87060172 2.35026777 8 1 C8.66 3.64 9.32 6.28 10 9 C10.66 9 11.32 9 12 9 C12 9.66 12 10.32 12 11 C10.02 10.34 8.04 9.68 6 9 C6 8.01 6 7.02 6 6 C5.01 5.34 4.02 4.68 3 4 C3 3.34 3 2.68 3 2 C2.01 1.67 1.02 1.34 0 1 C0 0.67 0 0.34 0 0 Z " fill="#992324" transform="translate(169,145)"/>
<path d="M0 0 C2.09749995 2.35968744 2.96905704 3.54616994 3.1875 6.75 C3.125625 7.4925 3.06375 8.235 3 9 C1.35 9 -0.3 9 -2 9 C-2 6.36 -2 3.72 -2 1 C-1.34 0.67 -0.68 0.34 0 0 Z " fill="#E0E5E8" transform="translate(420,236)"/>
<path d="M0 0 C0.598125 0.185625 1.19625 0.37125 1.8125 0.5625 C4.16408762 1.22093687 4.16408762 1.22093687 7 0 C7.33 2.97 7.66 5.94 8 9 C4.36905358 6.35039045 2.10148204 3.98175544 0 0 Z " fill="#9E2627" transform="translate(137,245)"/>
<path d="M0 0 C3.80489745 1.49478114 5.66190835 3.69442214 8 7 C8.33 7.99 8.66 8.98 9 10 C8.01 10.495 8.01 10.495 7 11 C7 10.01 7 9.02 7 8 C6.21625 7.9175 5.4325 7.835 4.625 7.75 C2 7 2 7 0.6875 5.125 C0 3 0 3 0 0 Z " fill="#942729" transform="translate(204,238)"/>
<path d="M0 0 C1.32 0 2.64 0 4 0 C4 0.99 4 1.98 4 3 C7.63 3.33 11.26 3.66 15 4 C15.33 5.65 15.66 7.3 16 9 C15.44828125 8.51917969 14.8965625 8.03835937 14.328125 7.54296875 C11.63856507 5.76045839 9.94178582 5.52248591 6.75 5.3125 C5.85796875 5.24675781 4.9659375 5.18101562 4.046875 5.11328125 C3.37140625 5.07589844 2.6959375 5.03851563 2 5 C1.34 3.35 0.68 1.7 0 0 Z " fill="#832324" transform="translate(224,200)"/>
<path d="M0 0 C1.875 0.1875 1.875 0.1875 4 1 C5.1875 3.375 5.1875 3.375 6 6 C6.33 6.99 6.66 7.98 7 9 C1.25 7.125 1.25 7.125 -1 6 C-1 5.34 -1 4.68 -1 4 C-0.34 3.67 0.32 3.34 1 3 C0.67 2.01 0.34 1.02 0 0 Z " fill="#A31B1D" transform="translate(239,188)"/>
<path d="M0 0 C4.50802601 1.25805377 7.4912812 2.90407165 11 6 C9 8 9 8 6.375 8.125 C5.59125 8.08375 4.8075 8.0425 4 8 C4 6.35 4 4.7 4 3 C3.01 3 2.02 3 1 3 C0.67 2.01 0.34 1.02 0 0 Z " fill="#9B2727" transform="translate(169,132)"/>
<path d="M0 0 C2.60444348 -0.05394705 5.20776998 -0.09364469 7.8125 -0.125 C8.55048828 -0.14175781 9.28847656 -0.15851563 10.04882812 -0.17578125 C13.91246426 -0.21074628 15.70903668 -0.19397555 19 2 C18.38125 2.28875 17.7625 2.5775 17.125 2.875 C14.86674235 3.93720042 14.86674235 3.93720042 13 6 C12.34 6 11.68 6 11 6 C11 5.01 11 4.02 11 3 C11.66 2.67 12.32 2.34 13 2 C8.71 1.67 4.42 1.34 0 1 C0 0.67 0 0.34 0 0 Z " fill="#70757C" transform="translate(303,172)"/>
<path d="M0 0 C0.66 0.99 1.32 1.98 2 3 C1.34 3 0.68 3 0 3 C0.33 4.32 0.66 5.64 1 7 C-1.64 7 -4.28 7 -7 7 C-7.33 5.68 -7.66 4.36 -8 3 C-7.38125 3.165 -6.7625 3.33 -6.125 3.5 C-4.03936614 4.07634644 -4.03936614 4.07634644 -2 4 C-2 3.34 -2 2.68 -2 2 C-1.34 2 -0.68 2 0 2 C0 1.34 0 0.68 0 0 Z " fill="#C2C7C9" transform="translate(326,201)"/>
<path d="M0 0 C0.33 0 0.66 0 1 0 C1.9765625 6.0546875 1.9765625 6.0546875 2 8 C1.34 8.66 0.68 9.32 0 10 C0.33 10.66 0.66 11.32 1 12 C-5.4 14.21538462 -5.4 14.21538462 -8.4375 13.125 C-8.953125 12.75375 -9.46875 12.3825 -10 12 C-7.36 11.67 -4.72 11.34 -2 11 C-1.34 7.37 -0.68 3.74 0 0 Z " fill="#94A1A6" transform="translate(290,188)"/>
<path d="M0 0 C-0.33 0.66 -0.66 1.32 -1 2 C-2.32 1.67 -3.64 1.34 -5 1 C-4.67 1.99 -4.34 2.98 -4 4 C-4.99 4 -5.98 4 -7 4 C-7 4.66 -7 5.32 -7 6 C-7.66 6 -8.32 6 -9 6 C-9 7.65 -9 9.3 -9 11 C-9.33 11 -9.66 11 -10 11 C-10.25 5.375 -10.25 5.375 -8 2 C-7.34 2 -6.68 2 -6 2 C-6 1.34 -6 0.68 -6 0 C-3.50907189 -1.24546405 -2.58919267 -0.7767578 0 0 Z " fill="#84898F" transform="translate(402,217)"/>
<path d="M0 0 C1.20628008 2.33214148 2.1654738 4.49642139 3 7 C1.35 7.33 -0.3 7.66 -2 8 C-1.67 7.34 -1.34 6.68 -1 6 C-1.33 5.34 -1.66 4.68 -2 4 C-2.99 3.67 -3.98 3.34 -5 3 C-5 2.34 -5 1.68 -5 1 C-3.35 0.67 -1.7 0.34 0 0 Z " fill="#EFF1F1" transform="translate(382,200)"/>
<path d="M0 0 C0.66 0.33 1.32 0.66 2 1 C1.60196439 3.88575819 1.20990931 4.82189513 -1.0625 6.75 C-1.701875 7.1625 -2.34125 7.575 -3 8 C-3.66 7.67 -4.32 7.34 -5 7 C-5 5.68 -5 4.36 -5 3 C-4.34 3 -3.68 3 -3 3 C-2.67 2.34 -2.34 1.68 -2 1 C-1.34 0.67 -0.68 0.34 0 0 Z " fill="#BDC3C6" transform="translate(296,199)"/>
<path d="M0 0 C1.89213369 2.38573379 3.02391783 4.07175348 4 7 C4.66 7.165 5.32 7.33 6 7.5 C6.66 7.665 7.32 7.83 8 8 C8.33 8.99 8.66 9.98 9 11 C8.01 11.33 7.02 11.66 6 12 C6 11.34 6 10.68 6 10 C4.02 9.34 2.04 8.68 0 8 C0 5.36 0 2.72 0 0 Z " fill="#94979B" transform="translate(376,188)"/>
<path d="M0 0 C-3 2 -3 2 -7 2 C-7.33 2.99 -7.66 3.98 -8 5 C-8.99 4.67 -9.98 4.34 -11 4 C-11 4.99 -11 5.98 -11 7 C-11.66 7 -12.32 7 -13 7 C-12.64978759 4.46096004 -12.15988127 3.17906702 -10.4375 1.25 C-6.86000943 -0.58461055 -3.99371657 -0.19968583 0 0 Z " fill="#A4A7AA" transform="translate(377,173)"/>
<path d="M0 0 C1.32 0 2.64 0 4 0 C4 1.32 4 2.64 4 4 C5.98 3.67 7.96 3.34 10 3 C9.01 4.485 9.01 4.485 8 6 C7.67 6.99 7.34 7.98 7 9 C5.83037314 7.69013727 4.66437056 6.3770374 3.5 5.0625 C2.8503125 4.33160156 2.200625 3.60070312 1.53125 2.84765625 C0 1 0 1 0 0 Z " fill="#862224" transform="translate(153,129)"/>
<path d="M0 0 C2 2 2 2 2 5 C2.66 5 3.32 5 4 5 C4 3.68 4 2.36 4 1 C4.99 1 5.98 1 7 1 C7.33 2.65 7.66 4.3 8 6 C6.02 6.33 4.04 6.66 2 7 C0.5393715 4.35261084 0 3.10551666 0 0 Z " fill="#75161A" transform="translate(129,238)"/>
<path d="M0 0 C0.33 0.66 0.66 1.32 1 2 C1.99 1.67 2.98 1.34 4 1 C4.66 1.66 5.32 2.32 6 3 C5.67 3.66 5.34 4.32 5 5 C5.66 5.33 6.32 5.66 7 6 C2.87248551 5.39301257 -0.3321148 3.96189209 -4 2 C-2.68 1.34 -1.36 0.68 0 0 Z " fill="#B2B6BB" transform="translate(342,233)"/>
<path d="M0 0 C1.29550781 -0.03867188 1.29550781 -0.03867188 2.6171875 -0.078125 C5.57524649 0.30891076 6.91701784 1.29875995 9.125 3.25 C7.145 3.25 5.165 3.25 3.125 3.25 C3.125 2.59 3.125 1.93 3.125 1.25 C-0.30730448 1.51393501 -0.30730448 1.51393501 -3.875 2.25 C-4.865 3.735 -4.865 3.735 -5.875 5.25 C-6.205 3.93 -6.535 2.61 -6.875 1.25 C-4.43545342 0.03022671 -2.72194151 0.04846187 0 0 Z " fill="#A0292A" transform="translate(164.875,149.75)"/>
<path d="M0 0 C0.66 0.33 1.32 0.66 2 1 C2.33 1.99 2.66 2.98 3 4 C3.33 4.66 3.66 5.32 4 6 C1.69 6 -0.62 6 -3 6 C-3 4.68 -3 3.36 -3 2 C-2.01 1.34 -1.02 0.68 0 0 Z " fill="#ECEFF0" transform="translate(436,245)"/>
<path d="M0 0 C1.98 0 3.96 0 6 0 C5.67 0.66 5.34 1.32 5 2 C4.34 2 3.68 2 3 2 C2.67 3.65 2.34 5.3 2 7 C0.35 7 -1.3 7 -3 7 C-2.01 4.69 -1.02 2.38 0 0 Z " fill="#F0F2F3" transform="translate(349,245)"/>
<path d="M0 0 C2.64 0 5.28 0 8 0 C8 0.66 8 1.32 8 2 C7.34 2 6.68 2 6 2 C4.37485532 3.45833358 4.37485532 3.45833358 3 5 C2.01 4.67 1.02 4.34 0 4 C0 2.68 0 1.36 0 0 Z " fill="#EFF2F4" transform="translate(336,241)"/>
<path d="M0 0 C0.33 0 0.66 0 1 0 C1.06058594 0.69867188 1.12117188 1.39734375 1.18359375 2.1171875 C1.26738281 3.02726563 1.35117187 3.93734375 1.4375 4.875 C1.51871094 5.77992188 1.59992188 6.68484375 1.68359375 7.6171875 C1.86989285 10.01110861 1.86989285 10.01110861 3 12 C5.32156597 12.40729228 7.6568787 12.74438677 10 13 C10 13.33 10 13.66 10 14 C6.7 14 3.4 14 0 14 C0 9.38 0 4.76 0 0 Z " fill="#606869" transform="translate(404,187)"/>
<path d="M0 0 C0 1.32 0 2.64 0 4 C-2.31 4.33 -4.62 4.66 -7 5 C-6.6875 3.0625 -6.6875 3.0625 -6 1 C-3 0 -3 0 0 0 Z " fill="#D4DADE" transform="translate(329,246)"/>
<path d="M0 0 C1.32 0 2.64 0 4 0 C5.42944945 2.35438733 6.08661261 3.48032433 5.625 6.25 C5.41875 6.8275 5.2125 7.405 5 8 C3 5 3 5 3 3 C2.01 3 1.02 3 0 3 C-0.33 3.66 -0.66 4.32 -1 5 C-0.67 3.35 -0.34 1.7 0 0 Z " fill="#EEF0F1" transform="translate(339,183)"/>
<path d="M0 0 C-0.99 0.495 -0.99 0.495 -2 1 C-2.65213292 3.02463255 -2.65213292 3.02463255 -3 5 C-3.66 5 -4.32 5 -5 5 C-5 4.01 -5 3.02 -5 2 C-6.98 2.33 -8.96 2.66 -11 3 C-10 1 -10 1 -8.3125 0.375 C-5.51555886 -0.07855802 -2.82858003 -0.06428591 0 0 Z " fill="#8D969A" transform="translate(321,215)"/>
<path d="M0 0 C-0.66 1.32 -1.32 2.64 -2 4 C-2.66 3.67 -3.32 3.34 -4 3 C-4 2.34 -4 1.68 -4 1 C-7.63 1 -11.26 1 -15 1 C-15 0.67 -15 0.34 -15 0 C-4.44191344 -1.33257403 -4.44191344 -1.33257403 0 0 Z " fill="#E7EAED" transform="translate(392,188)"/>
<path d="M0 0 C1.65 0.33 3.3 0.66 5 1 C4.34 2.98 3.68 4.96 3 7 C1.68 7 0.36 7 -1 7 C-0.67 4.69 -0.34 2.38 0 0 Z " fill="#ECEFF1" transform="translate(317,245)"/>
<path d="M0 0 C1.32 0.33 2.64 0.66 4 1 C4.33 3.64 4.66 6.28 5 9 C4.34 9 3.68 9 3 9 C2.67 7.35 2.34 5.7 2 4 C1.34 4 0.68 4 0 4 C0 2.68 0 1.36 0 0 Z " fill="#B32E2F" transform="translate(128,234)"/>
<path d="M0 0 C1.31611677 0.95336021 2.62778961 1.91285774 3.9375 2.875 C4.66839844 3.40867188 5.39929688 3.94234375 6.15234375 4.4921875 C8 6 8 6 9 8 C2.25 6.25 2.25 6.25 0 4 C0 2.68 0 1.36 0 0 Z " fill="#781A1D" transform="translate(175,217)"/>
<path d="M0 0 C1.65 0 3.3 0 5 0 C4.67 0.99 4.34 1.98 4 3 C4.38932856 5.14255793 4.38932856 5.14255793 5 7 C0.125 4.25 0.125 4.25 -1 2 C-0.67 1.34 -0.34 0.68 0 0 Z " fill="#A42323" transform="translate(223,212)"/>
<path d="M0 0 C0.66 0.33 1.32 0.66 2 1 C2 2.32 2 3.64 2 5 C-1.3 4.34 -4.6 3.68 -8 3 C-8 2.34 -8 1.68 -8 1 C-5.36 1.33 -2.72 1.66 0 2 C0 1.34 0 0.68 0 0 Z " fill="#961719" transform="translate(220,179)"/>
<path d="M0 0 C2.4375 0.75 2.4375 0.75 5 2 C5.8125 4.125 5.8125 4.125 6 6 C4.02 5.34 2.04 4.68 0 4 C0 2.68 0 1.36 0 0 Z " fill="#B6BABC" transform="translate(322,174)"/>
<path d="M0 0 C0.66 0 1.32 0 2 0 C2.33 2.31 2.66 4.62 3 7 C1.0625 6.6875 1.0625 6.6875 -1 6 C-1.33 5.01 -1.66 4.02 -2 3 C-1.34 2.01 -0.68 1.02 0 0 Z " fill="#812526" transform="translate(215,255)"/>
<path d="M0 0 C1.98 0 3.96 0 6 0 C6.33 0.99 6.66 1.98 7 3 C6.67 3.66 6.34 4.32 6 5 C2.83884224 3.63016497 2.0072908 3.0109362 0 0 Z " fill="#C1C7CA" transform="translate(319,216)"/>
<path d="M0 0 C-3.63423209 2.32590854 -6.77088331 2.16265833 -11 2 C-10.67 1.01 -10.34 0.02 -10 -1 C-6.36375521 -2.75078453 -3.58607386 -1.38552854 0 0 Z " fill="#F0F1F2" transform="translate(409,179)"/>
<path d="M0 0 C2.4375 0.6875 2.4375 0.6875 5 2 C5.8125 4.625 5.8125 4.625 6 7 C3.00675737 5.9024777 2.15389099 5.32317108 0.75 2.375 C0.5025 1.59125 0.255 0.8075 0 0 Z " fill="#AEB9BF" transform="translate(304,244)"/>
<path d="M0 0 C1.2065625 0.0309375 1.2065625 0.0309375 2.4375 0.0625 C2.7675 1.7125 3.0975 3.3625 3.4375 5.0625 C2.1175 4.0725 0.7975 3.0825 -0.5625 2.0625 C-1.5525 3.3825 -2.5425 4.7025 -3.5625 6.0625 C-3.605221 4.39638095 -3.60313832 2.72867115 -3.5625 1.0625 C-2.5625 0.0625 -2.5625 0.0625 0 0 Z " fill="#822026" transform="translate(176.5625,197.9375)"/>
<path d="M0 0 C5.75 0.875 5.75 0.875 8 2 C8 2.66 8 3.32 8 4 C2.25 4.125 2.25 4.125 0 3 C0 2.01 0 1.02 0 0 Z " fill="#931B1F" transform="translate(205,191)"/>
<path d="M0 0 C0.33 0.66 0.66 1.32 1 2 C0.67 2.66 0.34 3.32 0 4 C1.32 4.66 2.64 5.32 4 6 C1.69 6.66 -0.62 7.32 -3 8 C-2.45276317 4.62537285 -1.9451 2.91765 0 0 Z " fill="#791E26" transform="translate(128,171)"/>
<path d="M0 0 C3.375 0.3125 3.375 0.3125 7 1 C7.66 1.99 8.32 2.98 9 4 C7.3125 4.8125 7.3125 4.8125 5 5 C2.25 2.5625 2.25 2.5625 0 0 Z " fill="#95999D" transform="translate(379,172)"/>
<path d="M0 0 C1.98 0.66 3.96 1.32 6 2 C5.01 2.33 4.02 2.66 3 3 C3 3.66 3 4.32 3 5 C1.35 5 -0.3 5 -2 5 C-1.34 3.35 -0.68 1.7 0 0 Z " fill="#BB2F32" transform="translate(129,171)"/>
<path d="M0 0 C4.875 4.625 4.875 4.625 6 8 C6.66 8 7.32 8 8 8 C7.67 8.66 7.34 9.32 7 10 C2.57320993 8.52440331 2.08567304 6.09942632 0 2 C0 1.34 0 0.68 0 0 Z " fill="#782324" transform="translate(206,141)"/>
<path d="M0 0 C2.5 1.375 2.5 1.375 5 3 C5 3.66 5 4.32 5 5 C5.66 5.33 6.32 5.66 7 6 C6.01 7.485 6.01 7.485 5 9 C4.16094435 7.87926138 3.32892169 6.75325453 2.5 5.625 C2.0359375 4.99851563 1.571875 4.37203125 1.09375 3.7265625 C0 2 0 2 0 0 Z " fill="#751E25" transform="translate(192,135)"/>
<path d="M0 0 C5.75 1.75 5.75 1.75 8 4 C6.68 4 5.36 4 4 4 C3.67 4.66 3.34 5.32 3 6 C3 5.34 3 4.68 3 4 C2.01 3.67 1.02 3.34 0 3 C0 2.01 0 1.02 0 0 Z " fill="#6D2432" transform="translate(149,122)"/>
<path d="M0 0 C1.31602523 0.61754259 2.62773556 1.24428742 3.9375 1.875 C4.66839844 2.22304687 5.39929688 2.57109375 6.15234375 2.9296875 C8 4 8 4 9 6 C7.35 6 5.7 6 4 6 C3.67 5.01 3.34 4.02 3 3 C2.01 3 1.02 3 0 3 C0 2.01 0 1.02 0 0 Z " fill="#751C1F" transform="translate(189,228)"/>
<path d="M0 0 C2.3431213 0.25561323 4.67843403 0.59270772 7 1 C7.33 1.66 7.66 2.32 8 3 C5.6875 3.625 5.6875 3.625 3 4 C2.01 3.34 1.02 2.68 0 2 C0 1.34 0 0.68 0 0 Z " fill="#A41516" transform="translate(200,167)"/>
<path d="M0 0 C2.66735273 2.48952921 4.55746343 4.63408134 6 8 C4.35 7.67 2.7 7.34 1 7 C0.67 4.69 0.34 2.38 0 0 Z " fill="#802225" transform="translate(218,157)"/>
<path d="M0 0 C1.32 0.33 2.64 0.66 4 1 C3.67 2.98 3.34 4.96 3 7 C2.01 6.67 1.02 6.34 0 6 C0 4.02 0 2.04 0 0 Z " fill="#EEEFF0" transform="translate(408,217)"/>
<path d="M0 0 C4.95 0.33 9.9 0.66 15 1 C15 1.33 15 1.66 15 2 C9.43842552 2.91457003 5.324335 3.32086397 0 1 C0 0.67 0 0.34 0 0 Z " fill="#7B2827" transform="translate(152,148)"/>
<path d="M0 0 C2.82059747 1.41029874 2.98101714 3.07891581 4 6 C4.35858516 7.32676508 4.7018576 8.65835921 5 10 C0.07692308 5.69230769 0.07692308 5.69230769 -0.3125 2.1875 C-0.209375 1.465625 -0.10625 0.74375 0 0 Z " fill="#A81918" transform="translate(144,236)"/>
<path d="M0 0 C0.33 0 0.66 0 1 0 C1.185625 1.7015625 1.185625 1.7015625 1.375 3.4375 C1.684375 5.2009375 1.684375 5.2009375 2 7 C2.66 7.33 3.32 7.66 4 8 C3.01 8.33 2.02 8.66 1 9 C-1.14809171 5.77786243 -1.29386153 4.72224599 -1 1 C-0.67 0.67 -0.34 0.34 0 0 Z " fill="#802024" transform="translate(230,176)"/>
<path d="M0 0 C2.31 1.98 4.62 3.96 7 6 C6.67 7.32 6.34 8.64 6 10 C5.7525 9.4225 5.505 8.845 5.25 8.25 C4.06009525 5.86550111 4.06009525 5.86550111 1.875 3.875 C1.25625 3.25625 0.6375 2.6375 0 2 C0 1.34 0 0.68 0 0 Z " fill="#782427" transform="translate(224,165)"/>
<path d="M0 0 C1.32 0 2.64 0 4 0 C4 1.65 4 3.3 4 5 C3.01 5.495 3.01 5.495 2 6 C2 5.34 2 4.68 2 4 C1.34 4 0.68 4 0 4 C0 2.68 0 1.36 0 0 Z " fill="#C7252B" transform="translate(163,134)"/>
<path d="M0 0 C2.875 0.25 2.875 0.25 6 1 C7.375 3.0625 7.375 3.0625 8 5 C4.62496331 3.8141763 2.35277269 2.72426311 0 0 Z " fill="#7F2123" transform="translate(157,265)"/>
<path d="M0 0 C0.66 0 1.32 0 2 0 C2 0.66 2 1.32 2 2 C3.65 1.67 5.3 1.34 7 1 C6.01 2.32 5.02 3.64 4 5 C3.01 4.67 2.02 4.34 1 4 C0.3125 1.9375 0.3125 1.9375 0 0 Z " fill="#772528" transform="translate(240,210)"/>
<path d="M0 0 C0.33 0 0.66 0 1 0 C1 1.98 1 3.96 1 6 C1.66 6 2.32 6 3 6 C2.67 6.99 2.34 7.98 2 9 C1.01 8.67 0.02 8.34 -1 8 C-0.67 5.36 -0.34 2.72 0 0 Z " fill="#771E1E" transform="translate(121,200)"/>
<path d="M0 0 C1.98 0 3.96 0 6 0 C6 0.99 6 1.98 6 3 C3.69 3 1.38 3 -1 3 C-0.67 2.01 -0.34 1.02 0 0 Z " fill="#A4A2A8" transform="translate(385,185)"/>
<path d="M0 0 C2.56687367 3.8503105 1.83288724 5.58569763 1 10 C-1.56687367 6.1496895 -0.83288724 4.41430237 0 0 Z " fill="#7A7F83" transform="translate(328,180)"/>
<path d="M0 0 C0.66 0.33 1.32 0.66 2 1 C0.625 3.5 0.625 3.5 -1 6 C-1.66 6 -2.32 6 -3 6 C-2.625 3.5625 -2.625 3.5625 -2 1 C-1.34 0.67 -0.68 0.34 0 0 Z " fill="#B7BBBD" transform="translate(403,173)"/>
<path d="M0 0 C3.26954202 0.56371414 4.82575883 1.49962266 7 4 C5.68 3.67 4.36 3.34 3 3 C2.67 3.66 2.34 4.32 2 5 C1.34 3.35 0.68 1.7 0 0 Z " fill="#742127" transform="translate(189,129)"/>
<path d="M0 0 C2.97 0.495 2.97 0.495 6 1 C5.67 1.99 5.34 2.98 5 4 C3.35 3.67 1.7 3.34 0 3 C0 2.01 0 1.02 0 0 Z " fill="#B72E2C" transform="translate(153,126)"/>
</svg>
