<svg width="64" height="64" viewBox="0 0 64 64" fill="none" xmlns="http://www.w3.org/2000/svg">
<path fill-rule="evenodd" clip-rule="evenodd" d="M53.3333 13.334C56.2788 13.334 58.6667 15.7219 58.6667 18.6674V45.2968C58.6726 48.2508 56.2873 50.6527 53.3333 50.6674H10.6933C7.74346 50.6674 5.348 48.2839 5.33333 45.3341V18.6674C5.33333 17.2483 5.89887 15.8877 6.90484 14.8868C7.91081 13.8858 9.27422 13.327 10.6933 13.334H53.3333ZM53.3333 17.1208H10.6933C10.2906 17.1217 9.90578 17.2877 9.62865 17.5799C9.35151 17.8722 9.20623 18.2652 9.22666 18.6674V45.2968C9.21221 45.6954 9.36015 46.0828 9.63663 46.3704C9.9131 46.6579 10.2944 46.8209 10.6933 46.8221H53.3333C53.7275 46.8138 54.102 46.6477 54.3727 46.3609C54.6434 46.0742 54.7877 45.6908 54.7733 45.2968V18.6674C54.7936 18.2698 54.6519 17.8809 54.3806 17.5894C54.1092 17.298 53.7314 17.1289 53.3333 17.1208ZM21.6427 19.7821C27.9627 19.7821 31.456 23.7394 31.456 31.8888C31.4666 38.9608 29.0933 44.1608 21.6427 44.2194H12.672V19.7821H21.6427ZM44.224 19.7928C51.0986 19.7928 51.2 25.2381 51.2 25.7448C51.1748 28.3705 49.4467 30.6753 46.9333 31.4354C51.3813 32.4008 52.0853 35.6328 52.0853 37.3501C52.0853 43.9072 45.5882 44.2052 43.0075 44.2188L34.0266 44.2194V19.7928H44.224ZM19.728 23.6274H18.5387V40.2568H20.624C23.7333 40.2568 25.5413 37.7714 25.5413 32.3954C25.5413 27.4728 25.008 23.6274 19.728 23.6274ZM42.4053 33.9794H39.84V40.2568L42.3642 40.2566C43.4261 40.2521 46.1973 40.1362 46.1973 37.1208C46.1973 35.7554 45.4506 33.9794 42.4053 33.9794ZM41.6853 23.5581H39.84V29.4568H42.16C44.208 29.4568 45.36 28.1021 45.36 26.5021C45.36 24.4754 44.3146 23.5581 41.6853 23.5581Z" fill="#282D37"></path>
</svg>